<?xml version="1.0" encoding="UTF-8"?>
<svg id="Layer_2" data-name="Layer 2" xmlns="http://www.w3.org/2000/svg" viewBox="0 0 74.02 74.04">
  <defs>
    <style>
      .cls-1 {
        fill: #231f20;
      }
    </style>
  </defs>
  <g id="Layer_2-2" data-name="Layer 2">
    <path class="cls-1" d="M72.63,40.46l-32.17,32.18c-1.86,1.86-4.89,1.86-6.75,0L1.4,40.32c-1.86-1.87-1.86-4.89,0-6.75L23.55,11.41l8.41,8.39s-.01,.03-.01,.03c-1.19,2.9,.18,6.22,3.08,7.41v20.32c-.7,.3-1.32,.71-1.85,1.25h-.01c-1.11,1.11-1.66,2.56-1.66,4s.57,2.91,1.68,4.02c2.22,2.22,5.79,2.22,8.01,0,.44-.44,.81-.95,1.08-1.51,1.39-2.81,.24-6.21-2.57-7.6V27.6l7.65,7.65c-.88,2.12-.38,4.54,1.24,6.16,1.11,1.11,2.56,1.66,4.02,1.66s2.9-.55,4-1.66c2.22-2.22,2.22-5.81,0-8.02-1.53-1.53-3.82-2.06-5.87-1.33l-8.21-8.21c.71-2.06,.18-4.33-1.35-5.87-1.52-1.52-3.78-2.05-5.82-1.36l-8.51-8.51,6.7-6.72c1.87-1.86,4.89-1.86,6.75,0l32.32,32.32c1.86,1.86,1.86,4.89,0,6.75Z"/>
  </g>
</svg>