<?xml version="1.0" encoding="UTF-8"?>
<svg id="Layer_2" data-name="Layer 2" xmlns="http://www.w3.org/2000/svg" viewBox="0 0 74.35 37.92">
  <defs>
    <style>
      .cls-1 {
        fill: #fff;
      }
    </style>
  </defs>
  <g id="Layer_2-2" data-name="Layer 2">
    <g>
      <path class="cls-1" d="M37.18,0C20.54,0,6.37,11.63,1.01,16.67c-1.35,1.27-1.35,3.31,0,4.58,5.36,5.04,19.53,16.67,36.16,16.67s30.8-11.63,36.16-16.67c1.35-1.27,1.35-3.31,0-4.58C67.98,11.63,53.81,0,37.18,0Zm0,35.26c-9,0-16.29-7.29-16.29-16.29S28.18,2.67,37.18,2.67s16.3,7.3,16.3,16.3-7.3,16.29-16.3,16.29Z"/>
      <path class="cls-1" d="M48.42,18.96c0,6.21-5.04,11.25-11.25,11.25s-11.25-5.04-11.25-11.25c0-1.27,.21-2.49,.6-3.62,.87,1.66,2.61,2.78,4.6,2.78,2.87,0,5.21-2.33,5.21-5.21,0-2-1.13-3.73-2.78-4.6,1.13-.39,2.35-.6,3.61-.6,6.21,0,11.25,5.04,11.25,11.25Z"/>
    </g>
  </g>
</svg>