<?xml version="1.0" encoding="UTF-8"?><svg id="Layer_2" xmlns="http://www.w3.org/2000/svg" viewBox="0 0 737.56 539.01"><g id="Layer_1-2"><path d="m731.24,173.79c.14-.16.29-.33.42-.49.16-.2.32-.41.48-.61.1-.13.2-.26.3-.39.17-.23.33-.45.49-.68.08-.12.16-.23.24-.35.16-.24.31-.48.46-.72.07-.12.15-.23.22-.35.14-.24.28-.48.41-.72.07-.13.15-.26.22-.39.12-.23.24-.46.35-.69.08-.15.15-.3.23-.46.1-.21.19-.43.29-.64.08-.18.16-.36.24-.54.08-.19.15-.38.23-.58.08-.21.16-.42.24-.63.06-.17.12-.34.17-.51.08-.24.16-.48.23-.72.05-.15.09-.3.13-.45.07-.26.15-.52.21-.78.04-.14.07-.28.1-.43.06-.27.12-.54.18-.81.03-.15.05-.29.08-.44.05-.27.1-.53.14-.8.03-.17.04-.34.06-.51.03-.25.06-.49.09-.74.02-.23.04-.46.05-.68.01-.19.03-.39.04-.58.04-.86.04-1.72,0-2.58,0-.19-.03-.39-.04-.58-.02-.23-.03-.46-.05-.68-.02-.25-.06-.5-.09-.74-.02-.17-.04-.34-.06-.51-.04-.27-.09-.54-.14-.81-.03-.15-.05-.29-.08-.44-.05-.27-.12-.54-.18-.81-.03-.14-.06-.28-.1-.42-.07-.26-.14-.52-.21-.78-.04-.15-.08-.3-.13-.45-.07-.24-.15-.48-.23-.72-.06-.17-.11-.34-.17-.51-.08-.21-.16-.42-.24-.63-.07-.19-.15-.39-.23-.58-.08-.18-.16-.36-.24-.54-.09-.21-.19-.43-.29-.64-.07-.15-.15-.3-.23-.46-.12-.23-.23-.46-.35-.69-.07-.13-.15-.26-.22-.39-.14-.24-.27-.48-.41-.72-.07-.12-.15-.23-.22-.35-.15-.24-.3-.48-.46-.72-.08-.12-.16-.23-.24-.35-.16-.23-.32-.46-.48-.68-.1-.13-.2-.26-.3-.39-.16-.2-.31-.41-.48-.61-.14-.17-.28-.33-.42-.49-.13-.16-.27-.31-.4-.47-.29-.32-.58-.63-.89-.93L599.14,7.61c-10.15-10.15-26.62-10.15-36.77,0-10.15,10.15-10.15,26.62,0,36.77l86.42,86.42H225.9c-14.36,0-26,11.64-26,26s11.64,26,26,26h422.9l-86.42,86.42c-10.15,10.15-10.15,26.62,0,36.77,5.08,5.08,11.73,7.62,18.38,7.62s13.31-2.54,18.38-7.62l130.81-130.81c.3-.3.6-.61.89-.93.14-.15.27-.31.4-.47Z" style="fill:#b5f200;"/><path d="m511.66,356.2H88.77l86.42-86.42c10.15-10.15,10.15-26.62,0-36.77-10.15-10.15-26.62-10.15-36.77,0L7.61,363.82c-.3.3-.6.61-.89.93-.14.15-.27.31-.4.47-.14.16-.29.33-.42.49-.16.2-.32.41-.48.61-.1.13-.2.25-.3.39-.17.23-.33.46-.49.69-.08.12-.16.23-.24.35-.16.24-.31.48-.46.72-.07.12-.15.23-.22.35-.14.24-.28.48-.41.72-.07.13-.15.26-.22.39-.12.23-.24.46-.35.69-.08.15-.15.3-.23.46-.1.21-.19.43-.29.64-.08.18-.16.36-.24.54-.08.19-.15.38-.23.57-.08.21-.16.42-.24.63-.06.17-.12.34-.17.51-.08.24-.16.48-.23.72-.05.15-.09.3-.13.45-.07.26-.15.52-.21.78-.04.14-.07.28-.1.43-.06.27-.12.54-.18.81-.03.15-.05.3-.08.44-.05.27-.1.53-.14.8-.03.17-.04.34-.06.51-.03.25-.06.49-.09.74-.02.23-.04.46-.05.68-.01.19-.03.39-.04.58-.04.86-.04,1.72,0,2.58,0,.19.03.39.04.58.02.23.03.46.05.68.02.25.06.5.09.74.02.17.04.34.06.51.04.27.09.54.14.8.03.15.05.3.08.44.05.27.12.54.18.81.03.14.06.29.1.43.07.26.14.52.21.78.04.15.08.3.13.45.07.24.15.48.23.72.06.17.11.34.17.51.08.21.16.42.24.63.07.19.15.38.23.57.08.18.16.36.24.54.09.21.19.43.29.64.07.15.15.3.23.46.12.23.23.46.35.69.07.13.15.26.22.39.14.24.27.48.41.72.07.12.15.23.22.35.15.24.3.48.46.72.08.12.16.23.24.34.16.23.32.46.49.69.1.13.2.26.3.39.16.2.31.41.48.61.14.17.28.33.42.49.13.16.27.31.4.47.29.32.58.63.89.93l130.81,130.81c5.08,5.08,11.73,7.62,18.38,7.62s13.31-2.54,18.38-7.62c10.15-10.15,10.15-26.62,0-36.77l-86.42-86.42h422.9c14.36,0,26-11.64,26-26s-11.64-26-26-26Z" style="fill:#b5f200;"/></g></svg>