<?xml version="1.0" encoding="UTF-8"?><svg id="Layer_1" xmlns="http://www.w3.org/2000/svg" viewBox="0 0 128 128"><circle cx="64" cy="64" r="28.99" style="fill:#00d7f7;"/><path d="m64,28.81c-1.5,0-2.72-1.22-2.72-2.72v-14.4c0-1.5,1.22-2.72,2.72-2.72s2.72,1.22,2.72,2.72v14.4c0,1.5-1.22,2.72-2.72,2.72Z" style="fill:#00d7f7;"/><path d="m37.19,39.91c-.73,0-1.41-.28-1.92-.8l-10.18-10.18c-.51-.51-.8-1.2-.8-1.92s.28-1.41.8-1.92c.51-.51,1.2-.8,1.92-.8s1.41.28,1.92.8l10.18,10.18c.51.51.8,1.2.8,1.92s-.28,1.41-.8,1.92c-.51.51-1.2.8-1.92.8Z" style="fill:#00d7f7;"/><path d="m11.69,66.72c-1.5,0-2.72-1.22-2.72-2.72s1.22-2.72,2.72-2.72h14.39c1.5,0,2.72,1.22,2.72,2.72s-1.22,2.72-2.72,2.72h-14.39Z" style="fill:#00d7f7;"/><path d="m27.01,103.71c-.73,0-1.41-.28-1.92-.8-.51-.51-.8-1.2-.8-1.92s.28-1.41.8-1.92l10.18-10.18c.51-.51,1.2-.8,1.92-.8s1.41.28,1.92.8c.51.51.8,1.2.8,1.92s-.28,1.41-.8,1.92l-10.18,10.18c-.51.51-1.2.8-1.92.8Z" style="fill:#00d7f7;"/><path d="m64,119.03c-1.5,0-2.72-1.22-2.72-2.72v-14.39c0-1.5,1.22-2.72,2.72-2.72s2.72,1.22,2.72,2.72v14.39c0,1.5-1.22,2.72-2.72,2.72Z" style="fill:#00d7f7;"/><path d="m100.99,103.71c-.73,0-1.41-.28-1.92-.8l-10.18-10.18c-.51-.51-.8-1.2-.8-1.92s.28-1.41.8-1.92c.51-.51,1.2-.8,1.92-.8s1.41.28,1.92.8l10.18,10.18c.51.51.8,1.2.8,1.92s-.28,1.41-.8,1.92c-.51.51-1.2.8-1.92.8Z" style="fill:#00d7f7;"/><path d="m101.91,66.72c-1.5,0-2.72-1.22-2.72-2.72s1.22-2.72,2.72-2.72h14.4c1.5,0,2.72,1.22,2.72,2.72s-1.22,2.72-2.72,2.72h-14.4Z" style="fill:#00d7f7;"/><path d="m90.81,39.91c-.73,0-1.41-.28-1.92-.8-.51-.51-.8-1.2-.8-1.92s.28-1.41.8-1.92l10.18-10.18c.51-.51,1.2-.8,1.92-.8s1.41.28,1.92.8c.51.51.8,1.2.8,1.92s-.28,1.41-.8,1.92l-10.18,10.18c-.51.51-1.2.8-1.92.8Z" style="fill:#00d7f7;"/></svg>