<?xml version="1.0" encoding="UTF-8"?><svg id="Layer_2" xmlns="http://www.w3.org/2000/svg" viewBox="0 0 145.82 106.56"><g id="Layer_1-2"><path d="m144.57,34.36s.06-.06.08-.1c.03-.04.06-.08.09-.12.02-.03.04-.05.06-.08.03-.04.06-.09.1-.14.02-.02.03-.05.05-.07.03-.05.06-.09.09-.14.01-.02.03-.05.04-.07.03-.05.06-.09.08-.14.01-.03.03-.05.04-.08.02-.05.05-.09.07-.14.01-.03.03-.06.04-.09.02-.04.04-.08.06-.13.02-.04.03-.07.05-.11.02-.04.03-.08.04-.11.02-.04.03-.08.05-.12.01-.03.02-.07.03-.1.02-.05.03-.09.05-.14,0-.03.02-.06.03-.09.01-.05.03-.1.04-.15,0-.03.01-.06.02-.08.01-.05.02-.11.04-.16,0-.03.01-.06.02-.09,0-.05.02-.11.03-.16,0-.03,0-.07.01-.1,0-.05.01-.1.02-.15,0-.05,0-.09.01-.14,0-.04,0-.08,0-.11,0-.17,0-.34,0-.51,0-.04,0-.08,0-.11,0-.05,0-.09-.01-.14,0-.05-.01-.1-.02-.15,0-.03,0-.07-.01-.1,0-.05-.02-.11-.03-.16,0-.03,0-.06-.02-.09-.01-.05-.02-.11-.04-.16,0-.03-.01-.06-.02-.08-.01-.05-.03-.1-.04-.15,0-.03-.02-.06-.03-.09-.01-.05-.03-.09-.05-.14-.01-.03-.02-.07-.03-.1-.01-.04-.03-.08-.05-.12-.01-.04-.03-.08-.04-.11-.01-.04-.03-.07-.05-.11-.02-.04-.04-.08-.06-.13-.01-.03-.03-.06-.04-.09-.02-.05-.05-.09-.07-.14-.01-.03-.03-.05-.04-.08-.03-.05-.05-.1-.08-.14-.01-.02-.03-.05-.04-.07-.03-.05-.06-.1-.09-.14-.02-.02-.03-.05-.05-.07-.03-.05-.06-.09-.1-.13-.02-.03-.04-.05-.06-.08-.03-.04-.06-.08-.09-.12-.03-.03-.06-.07-.08-.1-.03-.03-.05-.06-.08-.09-.06-.06-.12-.12-.18-.18L118.45,1.51c-2.01-2.01-5.26-2.01-7.27,0-2.01,2.01-2.01,5.26,0,7.27l17.09,17.09H44.66c-2.84,0-5.14,2.3-5.14,5.14s2.3,5.14,5.14,5.14h83.61l-17.09,17.09c-2.01,2.01-2.01,5.26,0,7.27,1,1,2.32,1.51,3.63,1.51s2.63-.5,3.63-1.51l25.86-25.86c.06-.06.12-.12.18-.18.03-.03.05-.06.08-.09Z" style="fill:#231f20;"/><path d="m101.16,70.42H17.55l17.09-17.09c2.01-2.01,2.01-5.26,0-7.27-2.01-2.01-5.26-2.01-7.27,0L1.51,71.93c-.06.06-.12.12-.18.18-.03.03-.05.06-.08.09-.03.03-.06.06-.08.1-.03.04-.06.08-.09.12-.02.03-.04.05-.06.08-.03.04-.06.09-.1.14-.02.02-.03.05-.05.07-.03.05-.06.09-.09.14-.01.02-.03.05-.04.07-.03.05-.06.09-.08.14-.01.03-.03.05-.04.08-.02.05-.05.09-.07.14-.02.03-.03.06-.04.09-.02.04-.04.08-.06.13-.02.04-.03.07-.05.11-.02.04-.03.08-.04.11-.02.04-.03.08-.05.13-.01.03-.02.07-.03.1-.02.05-.03.09-.05.14,0,.03-.02.06-.03.09-.01.05-.03.1-.04.15,0,.03-.01.06-.02.08-.01.05-.02.11-.04.16,0,.03-.01.06-.02.09,0,.05-.02.11-.03.16,0,.03,0,.07-.01.1,0,.05-.01.1-.02.15,0,.05,0,.09-.01.14,0,.04,0,.08,0,.11,0,.17,0,.34,0,.51,0,.04,0,.08,0,.11,0,.05,0,.09.01.14,0,.05.01.1.02.15,0,.03,0,.07.01.1,0,.05.02.11.03.16,0,.03,0,.06.02.09.01.05.02.11.04.16,0,.03.01.06.02.08.01.05.03.1.04.15,0,.03.02.06.03.09.01.05.03.09.05.14.01.03.02.07.03.1.02.04.03.08.05.13.01.04.03.08.04.11.02.04.03.07.05.11.02.04.04.08.06.13.01.03.03.06.04.09.02.05.05.09.07.14.01.03.03.05.04.08.03.05.05.1.08.14.01.02.03.05.04.07.03.05.06.1.09.14.02.02.03.05.05.07.03.05.06.09.1.14.02.03.04.05.06.08.03.04.06.08.09.12.03.03.06.07.08.1.03.03.05.06.08.09.06.06.12.12.18.18l25.86,25.86c1,1,2.32,1.51,3.63,1.51s2.63-.5,3.63-1.51c2.01-2.01,2.01-5.26,0-7.27l-17.09-17.09h83.61c2.84,0,5.14-2.3,5.14-5.14s-2.3-5.14-5.14-5.14Z" style="fill:#231f20;"/></g></svg>