<?xml version="1.0" encoding="UTF-8"?><svg id="Layer_2" xmlns="http://www.w3.org/2000/svg" viewBox="0 0 207.19 207.19"><g id="Layer_1-2"><path d="m0,5.23v196.73c0,2.89,2.34,5.23,5.23,5.23h196.73c2.89,0,5.23-2.34,5.23-5.23v-93.14c0-2.89-2.34-5.23-5.23-5.23h-12.57c-2.89,0-5.23,2.34-5.23,5.23v70.12c0,2.89-2.34,5.23-5.23,5.23H28.25c-2.89,0-5.23-2.34-5.23-5.23V28.25c0-2.89,2.34-5.23,5.23-5.23h70.12c2.89,0,5.23-2.34,5.23-5.23V5.23c0-2.89-2.34-5.23-5.23-5.23H5.23C2.34,0,0,2.34,0,5.23Zm126.61,0v12.57c0,2.89,2.34,5.23,5.23,5.23h30.23c2.15,0,3.22,2.6,1.7,4.11l-99.16,99.16c-2.04,2.04-2.04,5.35,0,7.39l8.88,8.88c2.04,2.04,5.35,2.04,7.39,0l99.16-99.16c1.52-1.52,4.11-.44,4.11,1.7v30.23c0,2.89,2.34,5.23,5.23,5.23h12.57c2.89,0,5.23-2.34,5.23-5.23V5.23c0-2.89-2.34-5.23-5.23-5.23h-70.12c-2.89,0-5.23,2.34-5.23,5.23Z" style="fill:#fff;"/></g></svg>