<?xml version="1.0" encoding="UTF-8"?>
<svg id="Layer_2" data-name="Layer 2" xmlns="http://www.w3.org/2000/svg" xmlns:xlink="http://www.w3.org/1999/xlink" viewBox="0 0 153.44 153.44">
  <defs>
    <style>
      .cls-1 {
        fill: url(#linear-gradient-2);
      }

      .cls-2 {
        fill: blue;
        opacity: .5;
      }

      .cls-3 {
        opacity: 0;
      }

      .cls-4 {
        fill: url(#linear-gradient);
      }
    </style>
    <linearGradient id="linear-gradient" x1="76.72" y1="18.64" x2="76.72" y2="105.24" gradientUnits="userSpaceOnUse">
      <stop offset="0" stop-color="#b5f200"/>
      <stop offset="1" stop-color="#00aaca"/>
    </linearGradient>
    <linearGradient id="linear-gradient-2" x1="76.72" y1="80.06" x2="76.72" y2="149.38" xlink:href="#linear-gradient"/>
  </defs>
  <path class="cls-4" d="M116.75,31.3c-12.24-7.04-24.47-14.08-36.7-21.11-1.06-.65-2.16-1.25-3.28-1.79h-.22c-1.14,.53-2.2,1.19-3.29,1.81-12.22,7.04-24.44,14.07-36.66,21.09-.86,.42-1.37,1.31-1.31,2.26v44.5c-.05,.96,.49,1.84,1.35,2.25,13,7.49,26.01,14.98,39.04,22.44,.7,.42,1.58,.37,2.22-.12,13.01-7.48,26.02-14.97,39.03-22.46,.61-.39,1.05-1.01,1.2-1.71,.02-14.83-.01-29.66,.02-44.5,.12-1.09-.43-2.15-1.4-2.66Zm-16.47,43.07c-.24,2.31-1.95,4.19-4.23,4.63-3.19,.67-6.5-.33-8.79-2.64-8.11-9.64-16.2-19.29-24.27-28.96-.02,8.86,0,17.71,0,26.57,0,1.75-.87,3.39-2.32,4.37-2.19,1.44-5.1,1.15-6.96-.7-.96-.98-1.48-2.31-1.44-3.67V37.26c.11-2.63,2.12-4.8,4.74-5.09,3.41-.52,6.83,.84,8.95,3.56,7.9,9.38,15.73,18.81,23.66,28.16-.05-8.99,0-17.98,0-26.98,.23-2.59,2.28-4.64,4.86-4.86,2.94-.26,5.53,1.92,5.79,4.86,.02,12.48,.02,24.97,0,37.46Z"/>
  <path class="cls-1" d="M36.15,144.99c-.73,0-1.45-.29-1.99-.83l-16.68-16.68v14.69c0,1.56-1.26,2.82-2.82,2.82s-2.82-1.26-2.82-2.82v-21.5c0-1.14,.69-2.17,1.74-2.6,1.05-.44,2.27-.2,3.07,.61l16.68,16.68v-14.69c0-1.56,1.26-2.82,2.82-2.82s2.82,1.26,2.82,2.82v21.5c0,1.56-1.26,2.82-2.82,2.82m13.05-27.11l-.77,1.45-5.99,10.89-.77,1.37,.77,1.37,5.99,10.54,.81,1.44h15.68l.77-1.59,4.48-9.02,2.01-4.09h-4.55l-11.45,.04c-1.49-.02-2.86,1.33-2.86,2.82s1.37,2.84,2.86,2.82l6.91-.04-1.69,3.42h-8.88l-4.41-7.75,4.44-8.03h9.45l2.2,4.52h5.67l-3.58-8.57-.78-1.59h-16.32m28.56-.04c-1.48,.02-2.8,1.38-2.78,2.85v7.35h5.64v-7.35c.02-1.5-1.36-2.87-2.85-2.85m9.04,27.2c-1.56,0-2.82-1.26-2.82-2.82v-21.5c0-1.56,1.26-2.82,2.82-2.82s2.82,1.26,2.82,2.82v14.69l16.68-16.68c.81-.81,2.02-1.05,3.07-.61,1.05,.44,1.74,1.46,1.74,2.61v21.5c0,1.56-1.26,2.82-2.82,2.82s-2.82-1.26-2.82-2.82v-14.69l-16.68,16.68c-.53,.53-1.25,.83-1.99,.83m45.2-13.59l8.77-8.74c1.1-1.1,1.11-2.88,0-3.99-1.1-1.1-2.88-1.11-3.99,0l-8.78,8.75-8.78-8.75c-1.1-1.1-2.89-1.1-3.99,0-1.1,1.1-1.1,2.89,0,3.99l8.77,8.74-8.74,8.71c-1.1,1.1-1.11,2.88,0,3.99,.53,.53,1.25,.83,2,.83,.72,0,1.44-.27,1.99-.82l8.76-8.73,8.76,8.73c.53,.53,1.24,.82,1.99,.82,.72,0,1.45-.28,2-.83,1.1-1.1,1.1-2.89,0-3.99l-8.74-8.71m-54.23,13.51c-1.48-.02-2.8-1.38-2.78-2.85v-11.8h5.64v11.8c.02,1.5-1.36,2.87-2.85,2.85"/>
  <g class="cls-3">
    <path class="cls-2" d="M0,0V153.44H153.44V0H0ZM145.04,145.04H8.4V8.4H145.04V145.04Z"/>
  </g>
</svg>