<?xml version="1.0" encoding="UTF-8"?>
<svg id="Layer_2" data-name="Layer 2" xmlns="http://www.w3.org/2000/svg" xmlns:xlink="http://www.w3.org/1999/xlink" viewBox="0 0 153.44 153.44">
  <defs>
    <style>
      .cls-1 {
        fill: blue;
        opacity: .5;
      }

      .cls-2 {
        opacity: 0;
      }

      .cls-3 {
        fill: url(#linear-gradient);
      }
    </style>
    <linearGradient id="linear-gradient" x1="76.72" y1="14.57" x2="76.72" y2="158.86" gradientUnits="userSpaceOnUse">
      <stop offset="0" stop-color="#b5f200"/>
      <stop offset="1" stop-color="#00aaca"/>
    </linearGradient>
  </defs>
  <path class="cls-3" d="M126.03,84.32c-4.78,.03-8.91,1.17-12.38,2.88-1.28-2.54-2.56-4.75-2.78-6.41-.24-1.92-.53-3.1-.24-5.39s1.63-5.55,1.63-5.82c-.03-.24-.29-1.41-3.04-1.44-2.75-.03-5.12,.53-5.39,1.25s-.8,2.38-1.15,4.08c-.48,2.51-5.5,11.4-8.35,16.07-.93-1.81-1.73-3.42-1.89-4.7-.24-1.92-.53-3.1-.24-5.39s1.63-5.55,1.63-5.82c-.03-.24-.29-1.41-3.04-1.44-2.75-.03-5.12,.53-5.39,1.25-.27,.72-.56,2.43-1.15,4.08-.56,1.65-7.23,16.49-8.97,20.36-.88,1.98-1.65,3.55-2.22,4.62s-.03,.08-.08,.19c-.48,.91-.75,1.41-.75,1.41v.03c-.37,.67-.77,1.31-.96,1.31-.13,0-.4-1.79,.05-4.24,.99-5.15,3.39-13.18,3.36-13.48,0-.13,.45-1.55-1.55-2.27-1.95-.72-2.64,.48-2.8,.48s-.29,.43-.29,.43c0,0,2.16-9.05-4.14-9.05-3.95,0-9.39,4.3-12.09,8.22-1.71,.93-5.34,2.91-9.18,5.02-1.47,.8-2.99,1.65-4.43,2.43l-.29-.32c-7.63-8.14-21.75-13.91-21.17-24.85,.21-3.98,1.6-14.47,27.12-27.17,20.9-10.41,37.63-7.55,40.54-1.2,4.14,9.07-8.94,25.94-30.67,28.37-8.27,.93-12.62-2.27-13.72-3.47-1.15-1.25-1.31-1.31-1.73-1.07-.69,.37-.27,1.49,0,2.16,.64,1.68,3.31,4.67,7.85,6.17,3.98,1.31,13.69,2.03,25.44-2.51,13.16-5.1,23.43-19.24,20.42-31.07-3.07-12.04-23.03-15.99-41.9-9.29-11.24,4-23.41,10.25-32.16,18.44-10.41,9.72-12.06,18.2-11.37,21.73,2.43,12.57,19.75,20.76,26.69,26.82-.35,.19-.67,.37-.96,.53-3.47,1.71-16.68,8.62-19.99,15.93-3.74,8.27,.59,14.23,3.47,15.03,8.91,2.48,18.04-1.98,22.98-9.31,4.91-7.34,4.32-16.87,2.06-21.22l-.08-.16,2.72-1.6c1.76-1.04,3.5-2,5.02-2.83-.85,2.32-1.47,5.07-1.79,9.07-.37,4.7,1.55,10.78,4.08,13.18,1.12,1.04,2.46,1.07,3.28,1.07,2.94,0,4.27-2.43,5.74-5.34,1.81-3.55,3.42-7.66,3.42-7.66,0,0-2,11.13,3.47,11.13,2,0,4-2.59,4.91-3.92v.03s.05-.08,.16-.27c.21-.32,.32-.51,.32-.51v-.05c.8-1.39,2.59-4.56,5.26-9.82,3.44-6.78,6.75-15.27,6.75-15.27,0,0,.32,2.08,1.31,5.5,.59,2.03,1.87,4.24,2.86,6.41-.8,1.12-1.28,1.76-1.28,1.76l.03,.03c-.64,.85-1.36,1.76-2.11,2.67-2.72,3.26-5.98,6.97-6.41,8.03-.51,1.25-.4,2.19,.59,2.94,.72,.53,2,.64,3.36,.53,2.46-.16,4.16-.77,5.02-1.15,1.33-.48,2.86-1.2,4.32-2.27,2.67-1.98,4.3-4.78,4.14-8.51-.08-2.06-.75-4.08-1.57-6.01,.24-.35,.48-.69,.72-1.07,4.22-6.17,7.47-12.94,7.47-12.94,0,0,.32,2.08,1.31,5.5,.51,1.73,1.52,3.63,2.43,5.5-3.95,3.23-6.43,6.97-7.29,9.42-1.57,4.54-.35,6.59,1.98,7.07,1.04,.21,2.54-.27,3.66-.75,1.39-.45,3.07-1.23,4.62-2.38,2.67-1.98,5.23-4.72,5.1-8.43-.08-1.71-.53-3.39-1.15-4.99,3.36-1.39,7.71-2.19,13.24-1.52,11.88,1.39,14.23,8.81,13.77,11.9-.45,3.1-2.94,4.8-3.76,5.34-.83,.51-1.09,.69-1.01,1.07,.11,.56,.48,.53,1.2,.43,.99-.16,6.25-2.54,6.46-8.25,.32-7.34-6.65-15.35-19-15.27h0Zm-91.6,30.88c-3.92,4.3-9.45,5.93-11.8,4.54-2.54-1.47-1.55-7.79,3.28-12.36,2.94-2.78,6.75-5.34,9.26-6.91,.56-.35,1.41-.85,2.43-1.47,.16-.11,.27-.16,.27-.16,.19-.11,.4-.24,.61-.37,1.79,6.51,.08,12.22-4.06,16.73h0Zm28.69-19.51c-1.36,3.34-4.24,11.9-5.98,11.42-1.49-.4-2.4-6.89-.29-13.29,1.07-3.23,3.34-7.07,4.67-8.57,2.16-2.4,4.51-3.2,5.1-2.22,.69,1.28-2.64,10.57-3.5,12.65Zm23.67,11.32c-.59,.29-1.12,.51-1.36,.35-.19-.11,.24-.51,.24-.51,0,0,2.96-3.18,4.14-4.64,.67-.85,1.47-1.84,2.32-2.96v.32c0,3.84-3.68,6.41-5.34,7.45Zm18.26-4.16c-.43-.32-.37-1.31,1.07-4.4,.56-1.23,1.84-3.28,4.06-5.23,.27,.8,.43,1.57,.4,2.3-.03,4.8-3.44,6.59-5.52,7.34Z"/>
  <g class="cls-2">
    <path class="cls-1" d="M0,0V153.44H153.44V0H0ZM145.04,145.04H8.4V8.4H145.04V145.04Z"/>
  </g>
</svg>