<?xml version="1.0" encoding="UTF-8"?>
<svg id="Layer_2" data-name="Layer 2" xmlns="http://www.w3.org/2000/svg" xmlns:xlink="http://www.w3.org/1999/xlink" viewBox="0 0 153.44 153.44">
  <defs>
    <style>
      .cls-1 {
        fill: url(#linear-gradient-2);
      }

      .cls-2 {
        fill: blue;
        opacity: .5;
      }

      .cls-3 {
        opacity: 0;
      }

      .cls-4 {
        fill: url(#linear-gradient-3);
      }

      .cls-5 {
        fill: url(#linear-gradient);
      }

      .cls-6 {
        fill: url(#linear-gradient-4);
      }
    </style>
    <linearGradient id="linear-gradient" x1="76.72" y1="5.16" x2="76.72" y2="123.15" gradientUnits="userSpaceOnUse">
      <stop offset="0" stop-color="#b5f200"/>
      <stop offset="1" stop-color="#00aaca"/>
    </linearGradient>
    <linearGradient id="linear-gradient-2" x1="66.96" y1="106.04" x2="66.96" y2="155.7" xlink:href="#linear-gradient"/>
    <linearGradient id="linear-gradient-3" x1="79.18" y1="106.04" x2="79.18" y2="155.7" xlink:href="#linear-gradient"/>
    <linearGradient id="linear-gradient-4" x1="88.19" y1="106.04" x2="88.19" y2="155.7" xlink:href="#linear-gradient"/>
  </defs>
  <path class="cls-5" d="M119.41,56.89l-38.55,38.57c-2.23,2.23-5.86,2.23-8.09,0L34.03,56.72c-2.23-2.25-2.23-5.86,0-8.09l26.55-26.57,10.08,10.06s-.02,.03-.02,.03c-1.43,3.47,.22,7.46,3.69,8.89v24.36c-.83,.36-1.58,.85-2.21,1.5h-.02c-1.33,1.33-1.99,3.06-1.99,4.8s.68,3.49,2.01,4.82c2.66,2.66,6.94,2.66,9.6,0,.53-.53,.97-1.14,1.29-1.8,1.67-3.37,.29-7.44-3.08-9.11v-24.14l9.17,9.17c-1.06,2.54-.46,5.45,1.48,7.39,1.33,1.33,3.06,1.99,4.82,1.99s3.47-.66,4.8-1.99c2.66-2.66,2.66-6.96,0-9.62-1.84-1.84-4.58-2.47-7.03-1.6l-9.84-9.84c.85-2.47,.22-5.19-1.62-7.03s-4.53-2.45-6.98-1.63l-10.2-10.2,8.03-8.05c2.25-2.23,5.86-2.23,8.09,0l38.74,38.74c2.23,2.23,2.23,5.86,0,8.09Z"/>
  <g>
    <path class="cls-1" d="M66.64,127.35c-1.48,0-2.58,.73-2.58,2.47,0,1.31,.72,2.23,2.5,2.23,1.5,0,2.52-.88,2.52-2.28,0-1.58-.91-2.42-2.44-2.42h0Zm-2.95,12.32c-.35,.43-.7,.88-.7,1.42,0,1.07,1.37,1.4,3.25,1.4,1.56,0,3.68-.11,3.68-1.56,0-.86-1.02-.91-2.31-.99l-3.92-.27h0Zm7.94-12.24c.48,.62,.99,1.48,.99,2.71,0,2.98-2.34,4.72-5.72,4.72-.86,0-1.64-.11-2.12-.24l-.89,1.42,2.63,.16c4.64,.3,7.38,.43,7.38,4,0,3.09-2.71,4.83-7.38,4.83s-6.71-1.23-6.71-3.35c0-1.21,.54-1.85,1.48-2.74-.89-.37-1.18-1.05-1.18-1.77,0-.59,.29-1.13,.78-1.64,.48-.51,1.02-1.02,1.66-1.61-1.32-.64-2.31-2.04-2.31-4.03,0-3.09,2.04-5.21,6.15-5.21,1.15,0,1.85,.11,2.47,.27h5.23v2.28l-2.47,.19"/>
    <path class="cls-4" d="M78.82,122.56c-1.53,0-2.42-.89-2.42-2.42s.89-2.36,2.42-2.36,2.44,.83,2.44,2.36-.89,2.42-2.44,2.42Zm-3.46,16.13v-2.12l1.37-.19c.38-.05,.43-.13,.43-.54v-7.89c0-.29-.08-.48-.35-.56l-1.45-.51,.3-2.17h5.56v11.14c0,.43,.03,.48,.43,.54l1.37,.19v2.12h-7.65"/>
    <path class="cls-6" d="M93.62,137.65c-1.15,.56-2.85,1.07-4.38,1.07-3.19,0-4.4-1.29-4.4-4.32v-7.03c0-.16,0-.27-.22-.27h-1.88v-2.39c2.36-.27,3.3-1.45,3.6-4.38h2.55v3.81c0,.19,0,.27,.21,.27h3.78v2.68h-4v6.41c0,1.58,.38,2.2,1.82,2.2,.75,0,1.53-.19,2.17-.43l.73,2.36"/>
  </g>
  <g class="cls-3">
    <path class="cls-2" d="M0,0V153.44H153.44V0H0ZM145.04,145.04H8.4V8.4H145.04V145.04Z"/>
  </g>
</svg>