<?xml version="1.0" encoding="UTF-8"?><svg id="Layer_1" xmlns="http://www.w3.org/2000/svg" xmlns:xlink="http://www.w3.org/1999/xlink" viewBox="0 0 512 512"><defs><linearGradient id="linear-gradient" x1="319.1" y1="34.42" x2="70.29" y2="311.94" gradientUnits="userSpaceOnUse"><stop offset="0" stop-color="#b5f200"/><stop offset="1" stop-color="#00aaca"/></linearGradient><linearGradient id="linear-gradient-2" x1="377.18" y1="86.49" x2="128.37" y2="364.01" xlink:href="#linear-gradient"/><linearGradient id="linear-gradient-3" x1="312.19" y1="28.22" x2="63.38" y2="305.74" xlink:href="#linear-gradient"/><linearGradient id="linear-gradient-4" x1="322.46" y1="37.43" x2="73.65" y2="314.95" xlink:href="#linear-gradient"/><linearGradient id="linear-gradient-5" x1="357.59" y1="248.75" x2="290" y2="316.34" xlink:href="#linear-gradient"/><linearGradient id="linear-gradient-6" x1="208.14" y1="264.79" x2="151.65" y2="321.29" xlink:href="#linear-gradient"/><linearGradient id="linear-gradient-7" x1="270.1" y1="101.93" x2="235.3" y2="136.72" xlink:href="#linear-gradient"/><linearGradient id="linear-gradient-8" x1="315.79" y1="157.25" x2="202.16" y2="270.87" xlink:href="#linear-gradient"/><linearGradient id="linear-gradient-9" x1="280.76" y1="82.93" x2="259.76" y2="103.93" xlink:href="#linear-gradient"/><linearGradient id="linear-gradient-10" x1="240.51" y1="84.12" x2="221.28" y2="103.35" xlink:href="#linear-gradient"/><linearGradient id="linear-gradient-11" x1="509.1" y1="289.88" x2="-107.08" y2="456.38" xlink:href="#linear-gradient"/><linearGradient id="linear-gradient-12" x1="516.14" y1="315.94" x2="-100.04" y2="482.44" xlink:href="#linear-gradient"/><linearGradient id="linear-gradient-13" x1="526.43" y1="354.02" x2="-89.75" y2="520.52" xlink:href="#linear-gradient"/><linearGradient id="linear-gradient-14" x1="532.77" y1="377.51" x2="-83.4" y2="544.01" xlink:href="#linear-gradient"/><linearGradient id="linear-gradient-15" x1="540.7" y1="406.84" x2="-75.48" y2="573.34" xlink:href="#linear-gradient"/></defs><path d="m254.15,106.57c.59.31,1.07.97,1.73.99.63.02,1.62-.22,1.7-.85.11-.83-1.1-1.36-1.89-1.66-1-.39-2.29-.59-3.23-.07-.22.12-.45.4-.38.64.23.72,1.39.6,2.06.95Z" style="fill:url(#linear-gradient);"/><path d="m370.39,270.23s-.01,0-.01-.01c-2.11-2.39-3.12-6.81-4.2-11.52-1.08-4.71-2.29-9.78-6.15-13.07-.01,0-.02-.01-.02-.02-.77-.67-1.55-1.23-2.34-1.7-.79-.47-1.6-.85-2.4-1.16,5.37-15.93,3.27-31.79-2.16-46.13-6.65-17.59-18.27-32.92-27.14-43.41-9.93-12.53-19.64-24.42-19.45-41.99.3-26.81,2.95-76.52-44.23-76.59-1.92,0-3.92.08-6.01.24-52.72,4.24-38.74,59.94-39.52,78.59-.96,13.64-3.73,24.39-13.11,37.72-11.02,13.1-26.54,34.31-33.89,56.4-3.47,10.42-5.12,21.04-3.6,31.09-.48.43-.93.88-1.36,1.34-3.23,3.46-5.63,7.64-8.29,10.46-2.49,2.49-6.03,3.43-9.93,4.83-3.9,1.4-8.18,3.46-10.77,8.45,0,0,0,0,0,0,0,0,0,.02-.01.02-1.22,2.28-1.62,4.74-1.62,7.24,0,2.31.34,4.65.69,6.9.72,4.69,1.44,9.11.48,12.12-3.08,8.44-3.48,14.27-1.31,18.5,2.18,4.24,6.65,6.11,11.71,7.17,10.12,2.11,23.82,1.59,34.61,7.31l.93-1.75-.92,1.75c11.56,6.04,23.28,8.19,32.62,6.05,6.78-1.55,12.28-5.58,15.11-11.79,7.31-.03,15.33-3.13,28.19-3.84,8.72-.7,19.61,3.1,32.14,2.4.33,1.36.8,2.67,1.45,3.91,0,.01.01.02.02.04,4.86,9.71,13.88,14.15,23.5,13.4,9.63-.76,19.87-6.44,28.15-16.29l-1.52-1.27,1.53,1.26c7.89-9.57,20.98-13.53,29.67-18.77,4.34-2.62,7.86-5.9,8.14-10.66.27-4.76-2.52-10.09-8.95-17.23Zm-116.49-175.07c-.04-3.5.54-6.51,1.88-9.56,1.35-3.05,3.01-5.25,5.36-7.03,2.35-1.78,4.66-2.6,7.39-2.63h.13c2.67,0,4.96.79,7.31,2.49,2.38,1.73,4.1,3.9,5.49,6.93,1.36,2.95,2.01,5.84,2.08,9.26,0,.09,0,.17.02.26.03,3.51-.58,6.5-1.91,9.56-.76,1.74-1.63,3.2-2.68,4.47-.36-.17-.72-.33-1.11-.49-1.33-.57-2.5-1.03-3.55-1.43-1.05-.4-1.87-.67-2.72-.96.61-.74,1.82-1.62,2.27-2.71.68-1.65,1.02-3.27,1.08-5.19,0-.08.02-.14.02-.23.04-1.85-.21-3.42-.75-5.04-.56-1.7-1.28-2.91-2.32-3.93-1.04-1.01-2.08-1.47-3.32-1.51-.06,0-.11,0-.17,0-1.17,0-2.19.41-3.24,1.28-1.1.92-1.92,2.1-2.6,3.75-.68,1.64-1.01,3.27-1.08,5.21-.01.08-.01.14-.01.22-.02,1.07.05,2.04.21,2.99-2.4-1.19-5.46-2.06-7.58-2.57-.12-.92-.19-1.86-.21-2.85v-.27Zm-31.11-7.54c.84-2.69,1.95-4.64,3.57-6.25,1.62-1.6,3.24-2.41,5.21-2.51.15,0,.3-.01.45-.01,1.78,0,3.37.6,5.01,1.91,1.78,1.42,3.13,3.24,4.26,5.81,1.13,2.57,1.73,5.13,1.9,8.16v.02c.08,1.27.07,2.47-.03,3.63-.35.1-.69.21-1.03.32-1.91.66-3.44,1.39-4.91,2.36.14-1.02.16-2.05.05-3.2-.01-.06-.01-.12-.01-.18-.15-1.53-.48-2.81-1.02-4.1-.57-1.35-1.22-2.3-2.06-3.03-.77-.66-1.49-.97-2.29-.96-.08,0-.16,0-.25.01-.9.08-1.64.51-2.35,1.38-.7.86-1.17,1.92-1.5,3.33-.33,1.41-.42,2.8-.28,4.39,0,.06.01.11.01.18.15,1.54.46,2.82,1.01,4.12.56,1.33,1.22,2.28,2.06,3.01.14.12.28.23.42.33-.88.68-1.47,1.16-2.19,1.69-.46.34-1.01.74-1.65,1.22-1.4-1.31-2.49-2.95-3.44-5.12-1.13-2.56-1.73-5.13-1.91-8.16v-.02c-.17-3.03.13-5.63.96-8.33Zm1.37,26.69c2.79-2.09,4.72-3.51,6.01-4.45,1.28-.94,1.81-1.3,2.22-1.68,0,0,0,0,0,0h0c2.09-1.98,5.43-5.59,10.46-7.32,1.73-.6,3.66-.98,5.82-.99,4.13-.02,9.1,1.34,15.11,5.2,3.69,2.4,6.57,2.6,13.18,5.44h.01s0,0,0,0c3.18,1.31,5.05,3.01,5.97,4.8.91,1.79.94,3.74.17,5.78-1.53,4.09-6.41,8.4-13.25,10.53h0s0,0,0,0c-3.34,1.08-6.25,3.48-9.68,5.44-3.43,1.96-7.31,3.55-12.59,3.24-2.25-.13-4.05-.58-5.58-1.24-1.54-.66-2.82-1.53-4.03-2.5-2.43-1.95-4.55-4.41-7.64-6.23h-.01s0-.01,0-.01c-4.99-2.82-7.72-6.09-8.57-8.92-.86-2.83-.05-5.25,2.42-7.1Zm1.96,194.64v.02s0,.02,0,.02c-.71,9.31-5.96,14.38-14.02,16.22-8.06,1.84-18.98,0-29.89-5.7,0,0,0,0-.01,0-12.07-6.4-26.43-5.76-35.65-7.68-4.61-.96-7.61-2.41-8.99-5.1-1.38-2.69-1.41-7.38,1.52-15.38v-.04s.02-.03.02-.03c1.45-4.47.38-9.37-.33-13.96-.7-4.59-1.05-8.77.52-11.68v-.03c2.02-3.87,4.97-5.26,8.62-6.57,3.66-1.31,7.99-2.34,11.42-5.78l.02-.02.02-.02c3.16-3.34,5.54-7.53,8.32-10.5,2.35-2.51,4.7-4.17,8.24-4.19.04,0,.08,0,.12,0,.62,0,1.28.06,1.97.16,4.7.71,8.8,4,12.74,9.35l11.4,20.77h0s0,.02,0,.02c3.03,6.33,9.44,13.3,14.86,20.4,5.43,7.1,9.63,14.23,9.08,19.69Zm-.96-15.08c-1.49-2.36-3.21-4.71-4.97-7.02-1.13-1.48-2.29-2.94-3.44-4.39,2.26,0,4.19-.37,5.74-1.07,1.94-.88,3.29-2.29,3.97-4.1,1.34-3.62,0-8.72-4.31-14.55-4.31-5.83-11.6-12.4-22.31-18.98h0c-7.87-4.9-12.27-10.9-14.34-17.42-2.06-6.52-1.78-13.57-.18-20.53,3.05-13.36,10.88-26.35,15.88-34.5,1.34-.99.48,1.84-5.06,12.13-4.96,9.41-14.25,31.12-1.54,48.06.34-12.06,3.22-24.36,8.06-35.86,7.04-15.96,21.77-43.65,22.94-65.71.61.44,2.68,1.84,3.6,2.36t0,0c2.7,1.59,4.73,3.92,7.36,6.03,2.64,2.12,5.93,3.94,10.9,4.23.48.03.94.04,1.4.04,5.12,0,9.12-1.67,12.45-3.58,3.62-2.07,6.51-4.36,9.25-5.25,0,0,0,0,.01,0,5.79-1.81,10.39-5.01,13.01-8.74,4.5,17.73,14.96,43.33,21.68,55.83,3.58,6.63,10.68,20.71,13.75,37.68,1.95-.06,4.09.22,6.38.81,8.03-20.82-6.81-43.24-13.6-49.49-2.74-2.66-2.87-3.85-1.51-3.79,7.36,6.51,17.03,19.61,20.54,34.39,1.6,6.74,1.95,13.83.23,20.82.84.35,1.7.73,2.56,1.14,12.89,6.28,17.66,11.74,15.37,19.18-.76-.03-1.5-.02-2.22,0-.07,0-.13,0-.2,0,1.87-5.9-2.27-10.26-13.29-15.24-11.43-5.03-20.54-4.53-22.07,5.67-.1.53-.18,1.08-.24,1.63-.86.3-1.71.68-2.58,1.15-5.36,2.94-8.3,8.26-9.93,14.8-1.63,6.53-2.1,14.42-2.54,23.3h0c-.27,4.47-2.11,10.5-3.97,16.89-18.72,13.36-44.71,19.14-66.77,4.08Zm150.22-6.64c-.17,2.94-2.29,5.12-6.22,7.49-7.86,4.74-21.78,8.86-30.66,19.63-7.72,9.19-17.14,14.23-25.42,14.89-8.29.65-15.44-2.78-19.66-11.25v-.02s-.02-.02-.02-.02c-2.62-4.98-1.53-12.83.67-21.11,2.2-8.28,5.37-16.79,5.8-23.7v-.02c.45-8.86.94-16.59,2.43-22.56,1.49-5.97,3.83-10.01,7.98-12.28.2-.1.39-.21.58-.3.47,7.67,4.27,15.49,10.98,17.19,7.35,1.94,17.93-4.37,22.4-9.51.89-.04,1.77-.08,2.61-.1,3.92-.1,7.21.13,10.57,3.07h.01s.01.02.01.02c2.58,2.19,3.81,6.33,4.88,10.96,1.07,4.63,1.91,9.68,5.11,13.27h0s0,.01,0,.01c6.14,6.81,8.12,11.41,7.95,14.36Z" style="fill:url(#linear-gradient-2);"/><path d="m241.41,107.56c.66-.02,1.14-.69,1.73-.99.67-.34,1.84-.23,2.06-.95.07-.24-.16-.52-.38-.64-.94-.53-2.23-.33-3.23.07-.78.3-1.99.83-1.89,1.66.08.63,1.07.87,1.7.85Z" style="fill:url(#linear-gradient-3);"/><path d="m226.41,121.37c1.18,1.1,2.74,2.61,4.66,4.14,3.84,3.05,9.19,6.17,15.95,6.17s13.12-3.44,18.57-6.28c2.85-1.49,6.37-4.09,8.61-6.05,2.25-1.96,3.44-3.68,1.83-3.86-1.6-.19-1.54,1.53-3.48,2.96-2.54,1.86-5.65,4.32-8.09,5.7-4.32,2.42-11.39,5.98-17.44,5.98s-10.91-2.8-14.55-5.68c-1.82-1.44-3.32-2.89-4.52-4.01-.89-.83-1.1-2.68-2.51-2.85-.84-.07-1.08,2.19.96,3.81Z" style="fill:url(#linear-gradient-4);"/><g style="opacity:.3;"><path d="m375.37,287.23c-.17,2.94-2.29,5.12-6.22,7.49-7.86,4.74-21.78,8.86-30.66,19.63-7.72,9.19-17.14,14.23-25.42,14.89-8.29.65-15.44-2.78-19.66-11.25v-.02s-.02-.02-.02-.02c-2.62-4.98-1.53-12.83.67-21.11,2.2-8.28,5.37-16.79,5.8-23.7v-.02c.45-8.86.94-16.59,2.43-22.56,1.49-5.97,3.83-10.01,7.98-12.28.19-.1.39-.21.58-.3.47,7.67,4.27,15.5,10.98,17.19,7.35,1.94,17.93-4.37,22.4-9.51.89-.04,1.77-.08,2.61-.1,3.92-.1,7.21.13,10.57,3.07h.01s.01.02.01.02c2.58,2.19,3.81,6.33,4.88,10.96,1.07,4.63,1.91,9.68,5.11,13.27h0s0,.01,0,.01c6.14,6.81,8.12,11.41,7.95,14.36Z" style="fill:url(#linear-gradient-5);"/><path d="m226.12,308.95v.02s0,.02,0,.02c-.71,9.31-5.96,14.38-14.02,16.22-8.06,1.84-18.98,0-29.89-5.7,0,0,0,0-.01,0-12.07-6.4-26.43-5.76-35.65-7.68-4.61-.96-7.61-2.41-8.99-5.1-1.38-2.69-1.41-7.38,1.52-15.38v-.03s.02-.03.02-.03c1.45-4.47.38-9.37-.33-13.96-.7-4.59-1.05-8.77.52-11.68v-.03c2.02-3.87,4.97-5.26,8.62-6.57,3.66-1.31,7.99-2.34,11.42-5.78l.02-.02.02-.02c3.16-3.34,5.54-7.53,8.32-10.5,2.35-2.51,4.7-4.17,8.24-4.19.04,0,.08,0,.12,0,.62,0,1.28.06,1.97.16,4.7.71,8.8,4,12.74,9.35l11.4,20.77h0s0,.02,0,.02c3.03,6.33,9.44,13.3,14.86,20.4,5.43,7.1,9.63,14.23,9.08,19.69Z" style="fill:url(#linear-gradient-6);"/><path d="m282.96,115.3c-.92-1.79-2.78-3.5-5.97-4.8h0s-.01,0-.01,0c-6.62-2.83-9.49-3.04-13.18-5.44-6.01-3.86-10.98-5.22-15.11-5.2-2.16,0-4.09.39-5.82.99-5.03,1.73-8.37,5.34-10.46,7.32h0s0,0,0,.01c-.41.39-.94.74-2.22,1.68-1.29.94-3.23,2.36-6.01,4.45-2.48,1.86-3.28,4.27-2.42,7.1.85,2.83,3.58,6.1,8.57,8.92h0s.01.01.01.01c3.1,1.82,5.21,4.27,7.64,6.23,1.21.97,2.49,1.85,4.03,2.5,1.54.66,3.34,1.1,5.58,1.24,5.28.31,9.16-1.28,12.59-3.24,3.44-1.96,6.34-4.36,9.68-5.44h0s0,0,0,0c6.84-2.14,11.72-6.44,13.25-10.53.77-2.05.74-3.99-.17-5.78Zm-30.5-10.31c.94-.53,2.23-.33,3.23.07.78.3,1.99.83,1.89,1.66-.08.63-1.07.87-1.7.85-.66-.02-1.14-.69-1.73-.99-.67-.34-1.84-.23-2.06-.95-.07-.24.16-.52.38-.64Zm-10.87.07c1-.39,2.29-.59,3.23-.07.22.12.45.4.38.64-.23.72-1.39.6-2.06.95-.59.31-1.07.97-1.73.99-.63.02-1.62-.22-1.7-.85-.11-.83,1.1-1.36,1.89-1.66Zm32.61,14.3c-2.25,1.96-5.76,4.56-8.61,6.05-5.45,2.84-11.8,6.28-18.57,6.28s-12.11-3.13-15.95-6.17c-1.92-1.52-3.48-3.04-4.66-4.14-2.04-1.61-1.8-3.87-.96-3.8,1.41.17,1.62,2.03,2.51,2.85,1.2,1.12,2.7,2.57,4.52,4.01,3.63,2.88,8.48,5.68,14.55,5.68s13.13-3.56,17.44-5.98c2.44-1.37,5.56-3.83,8.09-5.7,1.94-1.43,1.87-3.14,3.48-2.96,1.6.18.42,1.9-1.83,3.86Z" style="fill:url(#linear-gradient-7);"/><path d="m348.97,241.59c-.76-.03-1.5-.02-2.22,0-.07,0-.13,0-.2,0,1.87-5.9-2.27-10.26-13.29-15.24-11.43-5.03-20.54-4.53-22.07,5.67-.1.53-.18,1.08-.24,1.63-.86.3-1.71.68-2.58,1.15-5.36,2.94-8.3,8.26-9.93,14.8-1.63,6.53-2.1,14.42-2.54,23.3h0c-.27,4.47-2.11,10.5-3.97,16.89-18.72,13.36-44.71,19.14-66.77,4.08-1.49-2.36-3.21-4.71-4.97-7.02-1.13-1.48-2.29-2.94-3.44-4.39,2.26,0,4.19-.37,5.74-1.07,1.94-.88,3.29-2.29,3.97-4.1,1.34-3.62,0-8.72-4.31-14.55-4.31-5.83-11.6-12.4-22.31-18.98h0c-7.87-4.9-12.27-10.9-14.34-17.42-2.06-6.52-1.78-13.57-.18-20.53,3.05-13.36,10.88-26.35,15.88-34.5,1.34-.99.48,1.84-5.06,12.13-4.96,9.41-14.25,31.12-1.54,48.06.34-12.06,3.22-24.36,8.06-35.86,7.04-15.96,21.77-43.65,22.94-65.71.61.44,2.68,1.84,3.6,2.36t0,0c2.7,1.59,4.73,3.92,7.36,6.03,2.64,2.12,5.93,3.94,10.9,4.23.48.03.94.04,1.4.04,5.12,0,9.12-1.67,12.45-3.58,3.62-2.07,6.51-4.36,9.25-5.25,0,0,0,0,.01,0,5.79-1.81,10.39-5.01,13.01-8.74,4.5,17.73,14.96,43.33,21.68,55.83,3.58,6.63,10.68,20.71,13.75,37.68,1.95-.06,4.09.22,6.38.81,8.03-20.82-6.81-43.24-13.6-49.49-2.74-2.66-2.87-3.85-1.51-3.79,7.36,6.51,17.03,19.61,20.54,34.39,1.6,6.74,1.95,13.83.23,20.82.84.35,1.7.73,2.56,1.14,12.89,6.28,17.66,11.74,15.37,19.19Z" style="fill:url(#linear-gradient-8);"/><path d="m283.56,94.88c.03,3.51-.58,6.5-1.91,9.56-.76,1.74-1.63,3.2-2.68,4.47-.36-.17-.72-.33-1.11-.49-1.33-.57-2.5-1.03-3.55-1.43-1.05-.4-1.87-.67-2.72-.96.61-.74,1.82-1.62,2.27-2.71.68-1.65,1.02-3.27,1.08-5.19,0-.08.02-.14.02-.23.04-1.85-.21-3.42-.74-5.04-.56-1.7-1.28-2.91-2.32-3.93-1.04-1.01-2.08-1.47-3.32-1.51-.06,0-.11,0-.17,0-1.17,0-2.19.41-3.24,1.28-1.1.92-1.92,2.1-2.6,3.75-.68,1.64-1.01,3.27-1.08,5.21-.01.08-.01.14-.01.22-.02,1.07.05,2.04.21,2.99-2.4-1.19-5.46-2.06-7.58-2.57-.12-.92-.19-1.86-.21-2.85v-.27c-.04-3.5.54-6.51,1.88-9.56,1.35-3.05,3.01-5.25,5.36-7.03,2.35-1.78,4.66-2.6,7.39-2.63h.13c2.67,0,4.96.79,7.31,2.49,2.38,1.73,4.1,3.9,5.49,6.93,1.36,2.95,2.01,5.84,2.08,9.26,0,.09,0,.17.02.26Z" style="fill:url(#linear-gradient-9);"/><path d="m243.15,98.38c-.35.1-.69.21-1.03.32-1.91.66-3.44,1.39-4.91,2.36.14-1.02.16-2.05.05-3.2-.01-.06-.01-.11-.01-.18-.15-1.53-.48-2.81-1.02-4.1-.57-1.35-1.22-2.3-2.06-3.03-.77-.66-1.49-.97-2.29-.96-.08,0-.16,0-.25.01-.9.08-1.64.52-2.35,1.38-.7.86-1.17,1.92-1.5,3.34-.33,1.41-.42,2.8-.28,4.39,0,.06.01.11.01.18.15,1.54.46,2.82,1.01,4.12.56,1.33,1.22,2.28,2.06,3.01.14.12.28.23.42.33-.88.68-1.47,1.16-2.19,1.69-.46.34-1.01.74-1.65,1.21-1.4-1.31-2.49-2.95-3.44-5.12-1.13-2.56-1.73-5.13-1.91-8.16v-.02c-.17-3.03.13-5.63.96-8.33.84-2.69,1.95-4.64,3.57-6.25,1.62-1.6,3.24-2.41,5.21-2.51.15,0,.3-.01.45-.01,1.78,0,3.37.6,5.01,1.91,1.78,1.42,3.13,3.24,4.26,5.81,1.13,2.57,1.73,5.13,1.9,8.16v.02c.08,1.27.07,2.47-.03,3.63Z" style="fill:url(#linear-gradient-10);"/></g><path d="m30.83,361.71c0-3.17-.84-5.43-2.53-6.75-1.69-1.33-4.5-1.99-8.45-1.99h-2.82c-1.17,0-1.75-.55-1.75-1.65v-4.76l.39-.19h54.13l.39.19v4.76c0,1.1-.45,1.65-1.36,1.65h-3.01c-3.89,0-6.64.73-8.26,2.19-1.62,1.46-2.43,3.64-2.43,6.56v94.95c0,2.92.58,5.17,1.75,6.75,1.17,1.59,2.82,2.38,4.96,2.38h17.1c3.76,0,7.16-.81,10.2-2.43,3.04-1.62,5.59-3.82,7.63-6.61,2.04-2.79,3.71-5.62,5-8.5,1.3-2.88,2.4-6.01,3.3-9.38l7.77,1.65c-2.92,14.27-4.54,25.8-4.86,34.6H16.06l-.78-.19v-3.98c0-1.62,1.07-2.43,3.21-2.43h6.32c2.4,0,4-.55,4.81-1.65.81-1.1,1.21-3.17,1.21-6.22v-98.93Z" style="fill:url(#linear-gradient-11);"/><path d="m159.89,410.98v48.59c0,2.59.74,4.5,2.24,5.73,1.49,1.23,3.85,2.17,7.09,2.82l2.04.39c1.04.26,1.55.87,1.55,1.85v4.57l-.39.19h-47.13l-.39-.19v-4.57c0-1.1.45-1.72,1.36-1.85l2.43-.39c3.24-.58,5.6-1.49,7.09-2.72,1.49-1.23,2.24-3.18,2.24-5.83v-48.53c0-3.24-.18-5.77-.53-7.58-.36-1.81-.83-3.05-1.41-3.69-.58-.65-1.39-.97-2.43-.97l-8.16-.92-.39-5.93c17.43-2.33,28.77-4.31,34.01-5.93.91,0,1.36.19,1.36.58-.39,9.65-.58,17.78-.58,24.39Zm-19.58-41.25c-2.3-2.3-3.45-5.1-3.45-8.41s1.15-6.12,3.45-8.45c2.3-2.33,5.1-3.5,8.41-3.5s6.12,1.17,8.45,3.5c2.33,2.33,3.5,5.15,3.5,8.45s-1.17,6.11-3.5,8.41c-2.33,2.3-5.15,3.45-8.45,3.45s-6.11-1.15-8.41-3.45Z" style="fill:url(#linear-gradient-12);"/><path d="m216.16,399.13c10.88-8.36,20.89-12.54,30.03-12.54,4.15,0,7.71.55,10.69,1.65,2.98,1.1,5.35,2.54,7.09,4.32,1.75,1.78,3.11,4.11,4.08,7,.97,2.88,1.62,5.77,1.94,8.65.32,2.88.49,6.33.49,10.35v41.21c0,2.53.73,4.32,2.19,5.39,1.46,1.07,3.97,2.06,7.53,2.96l1.65.39c1.04.26,1.55.87,1.55,1.85v4.57l-.39.19h-45.97l-.39-.19v-4.57c0-.91.52-1.52,1.55-1.85l.87-.19c3.43-.84,5.88-1.83,7.34-2.96,1.46-1.13,2.19-3,2.19-5.59v-42.57c0-7.26-.53-12.33-1.6-15.21-1.07-2.88-3.32-4.32-6.75-4.32-5.96,0-13.99,3.14-24.1,9.43v52.67c0,2.53.76,4.39,2.28,5.59,1.52,1.2,3.94,2.19,7.24,2.96l.78.19c1.1.26,1.65.87,1.65,1.85v4.57l-.39.19h-45.97l-.39-.19v-4.57c0-1.04.52-1.65,1.55-1.85l1.75-.39c3.56-.78,6.06-1.72,7.48-2.82,1.42-1.1,2.14-2.95,2.14-5.54v-48.69c0-4.6-.34-7.64-1.02-9.14-.68-1.49-1.8-2.3-3.35-2.43l-8.16-.78-.39-6.8c15.81-2.01,26.95-3.98,33.43-5.93.91,0,1.36.19,1.36.58l-.39,12.54h.39Z" style="fill:url(#linear-gradient-13);"/><path d="m378.74,452.19c0,3.37.87,6.01,2.62,7.92,1.75,1.91,5.12,2.87,10.11,2.87l.19,6.41c-5.7.78-10.45,1.64-14.24,2.58-3.79.94-6.5,1.77-8.11,2.48-1.62.71-3.5,1.68-5.64,2.92h-6.8l.58-9.43c-9.39,5.96-17.95,8.94-25.66,8.94-5.57,0-10.25-.75-14.04-2.24-3.79-1.5-6.64-3.62-8.55-6.39-1.91-2.76-3.24-5.64-3.98-8.63-.75-2.99-1.12-6.4-1.12-10.24v-44.77c0-3.19-.41-5.54-1.21-7.07-.81-1.53-2.32-2.29-4.52-2.29h-6.22l-.58-.68v-6.02l.97-.19h33.72c-.19,5.95-.29,11.37-.29,16.29v42.07c0,3.94.36,7.32,1.07,10.13.71,2.81,1.65,4.91,2.82,6.3,1.17,1.39,2.32,2.38,3.45,2.96,1.13.58,2.28.87,3.45.87,7.71,0,14.41-2.46,20.12-7.39v-54.88c0-6.37-1.85-9.55-5.54-9.55h-6.22l-.78-.58v-6.02l.78-.19h34.01c-.26,5.51-.39,10.95-.39,16.33v47.52Z" style="fill:url(#linear-gradient-14);"/><path d="m432.68,460.35c-1.1,1.55-1.77,2.87-1.99,3.94-.23,1.07-.02,1.88.63,2.43.65.55,1.3.94,1.94,1.17.65.23,1.59.44,2.82.63,1.04.19,1.55.75,1.55,1.65v4.76l-.78.19h-37.22l-.39-.19v-4.37c0-1.1.71-1.78,2.14-2.04,7.58-1.04,13.57-4.15,17.98-9.33l18.27-22.64c.71-.84,1.1-1.44,1.17-1.8.06-.36-.13-.76-.58-1.22l-17.69-25.27c-6.22-8.88-12.28-13.31-18.17-13.31-1.3,0-1.94-.49-1.94-1.46v-4.96l.58-.19h45l.58.19v4.76c0,.91-.52,1.46-1.55,1.65-3.95.39-6.2,1.05-6.75,1.99-.55.94.24,3.06,2.38,6.37l9.52,13.9c.71,1.04,1.26,1.57,1.65,1.6.39.03.84-.31,1.36-1.02l9.91-14.29c2.14-2.85,2.98-4.92,2.53-6.22-.45-1.3-2.43-2.07-5.93-2.33-.91-.06-1.36-.55-1.36-1.46v-4.76l.58-.39h36.83l.39.19v4.57c0,1.1-.71,1.72-2.14,1.85-7.58.84-13.57,4.08-17.98,9.72l-17.69,21.48c-.58.78-.45,1.78.39,3.01l17.49,26.04c3.11,4.6,6.01,7.82,8.7,9.67,2.69,1.85,5.98,3.06,9.86,3.64,1.3.13,1.94.62,1.94,1.46v4.96l-.58.19h-44.41l-.78-.19v-4.76c0-.84.55-1.39,1.65-1.65,2.53-.39,4.26-.79,5.2-1.21.94-.42,1.39-1.13,1.36-2.14-.03-1-.7-2.51-1.99-4.52l-8.36-12.83c-1.17-2.01-2.03-3.22-2.58-3.64-.55-.42-1.15-.37-1.8.15-.65.52-1.78,1.91-3.4,4.18l-8.36,11.86Z" style="fill:url(#linear-gradient-15);"/></svg>