<?xml version="1.0" encoding="UTF-8"?>
<svg id="Layer_2" data-name="Layer 2" xmlns="http://www.w3.org/2000/svg" xmlns:xlink="http://www.w3.org/1999/xlink" viewBox="0 0 153.44 153.44">
  <defs>
    <style>
      .cls-1 {
        fill: url(#linear-gradient-2);
      }

      .cls-2 {
        fill: blue;
        opacity: .5;
      }

      .cls-3 {
        fill: url(#linear-gradient-17);
      }

      .cls-4 {
        fill: url(#linear-gradient-4);
      }

      .cls-4, .cls-5, .cls-6 {
        opacity: .35;
      }

      .cls-7 {
        fill: url(#linear-gradient-15);
      }

      .cls-8 {
        fill: url(#linear-gradient-18);
      }

      .cls-9 {
        fill: url(#linear-gradient-14);
      }

      .cls-10 {
        fill: url(#linear-gradient-20);
      }

      .cls-11 {
        fill: url(#linear-gradient-6);
      }

      .cls-12 {
        opacity: 0;
      }

      .cls-5 {
        fill: url(#linear-gradient);
      }

      .cls-13 {
        fill: url(#linear-gradient-11);
      }

      .cls-14 {
        fill: url(#linear-gradient-10);
      }

      .cls-15 {
        fill: url(#linear-gradient-16);
      }

      .cls-16 {
        fill: url(#linear-gradient-21);
      }

      .cls-17 {
        fill: url(#linear-gradient-5);
      }

      .cls-18 {
        fill: url(#linear-gradient-7);
      }

      .cls-19 {
        fill: url(#linear-gradient-9);
      }

      .cls-20 {
        fill: url(#linear-gradient-22);
      }

      .cls-21 {
        fill: url(#linear-gradient-19);
      }

      .cls-22 {
        fill: url(#linear-gradient-8);
      }

      .cls-6 {
        fill: url(#linear-gradient-3);
      }

      .cls-23 {
        fill: url(#linear-gradient-12);
      }

      .cls-24 {
        fill: url(#linear-gradient-13);
      }
    </style>
    <linearGradient id="linear-gradient" x1="161.33" y1="-28.87" x2="26.97" y2="105.49" gradientUnits="userSpaceOnUse">
      <stop offset="0" stop-color="#b5f200"/>
      <stop offset="1" stop-color="#00aaca"/>
    </linearGradient>
    <linearGradient id="linear-gradient-2" x1="77.06" y1="14.58" x2="77.06" y2="88.23" xlink:href="#linear-gradient"/>
    <linearGradient id="linear-gradient-3" x1="84.18" y1="14.58" x2="84.18" y2="88.23" xlink:href="#linear-gradient"/>
    <linearGradient id="linear-gradient-4" x1="64.71" y1="14.58" x2="64.71" y2="88.23" xlink:href="#linear-gradient"/>
    <linearGradient id="linear-gradient-5" x1="30.54" y1="79.11" x2="30.54" y2="146.55" xlink:href="#linear-gradient"/>
    <linearGradient id="linear-gradient-6" x1="39.44" y1="79.11" x2="39.44" y2="146.55" xlink:href="#linear-gradient"/>
    <linearGradient id="linear-gradient-7" x1="48.35" y1="79.11" x2="48.35" y2="146.55" xlink:href="#linear-gradient"/>
    <linearGradient id="linear-gradient-8" x1="57.34" y1="79.11" x2="57.34" y2="146.55" xlink:href="#linear-gradient"/>
    <linearGradient id="linear-gradient-9" x1="65.55" y1="79.11" x2="65.55" y2="146.55" xlink:href="#linear-gradient"/>
    <linearGradient id="linear-gradient-10" x1="77.73" y1="79.11" x2="77.73" y2="146.55" xlink:href="#linear-gradient"/>
    <linearGradient id="linear-gradient-11" x1="85.21" y1="79.11" x2="85.21" y2="146.55" xlink:href="#linear-gradient"/>
    <linearGradient id="linear-gradient-12" x1="91.7" y1="79.11" x2="91.7" y2="146.55" xlink:href="#linear-gradient"/>
    <linearGradient id="linear-gradient-13" x1="99.45" y1="79.11" x2="99.45" y2="146.55" xlink:href="#linear-gradient"/>
    <linearGradient id="linear-gradient-14" x1="106.05" y1="79.11" x2="106.05" y2="146.55" xlink:href="#linear-gradient"/>
    <linearGradient id="linear-gradient-15" x1="110.75" y1="79.11" x2="110.75" y2="146.55" xlink:href="#linear-gradient"/>
    <linearGradient id="linear-gradient-16" x1="116.57" y1="79.11" x2="116.57" y2="146.55" xlink:href="#linear-gradient"/>
    <linearGradient id="linear-gradient-17" x1="124.2" y1="79.11" x2="124.2" y2="146.55" xlink:href="#linear-gradient"/>
    <linearGradient id="linear-gradient-18" x1="61.91" y1="79.11" x2="61.91" y2="146.55" xlink:href="#linear-gradient"/>
    <linearGradient id="linear-gradient-19" x1="68.52" y1="79.11" x2="68.52" y2="146.55" xlink:href="#linear-gradient"/>
    <linearGradient id="linear-gradient-20" x1="74.59" y1="79.11" x2="74.59" y2="146.55" xlink:href="#linear-gradient"/>
    <linearGradient id="linear-gradient-21" x1="83.35" y1="79.11" x2="83.35" y2="146.55" xlink:href="#linear-gradient"/>
    <linearGradient id="linear-gradient-22" x1="91.79" y1="79.11" x2="91.79" y2="146.55" xlink:href="#linear-gradient"/>
  </defs>
  <g>
    <g>
      <path class="cls-5" d="M108.84,8.4H44.6c-9.07,0-16.43,7.36-16.43,16.43v61.8c0,9.07,7.35,16.43,16.43,16.43H108.84c9.07,0,16.43-7.36,16.43-16.43V24.83c0-9.07-7.35-16.43-16.43-16.43Zm-22.65,75h-22.29c-6.39,0-12.46-2.63-16.83-7.28-4.17-4.45-6.51-10.28-6.55-16.35,0-11.25,8.94-23.38,23.38-23.38,.85,0,1.74,.08,2.63,.16,4.82-5.09,12.3-8.25,19.66-8.25,7.53-.04,14.77,3.08,19.9,8.62,4.77,5.14,7.45,11.85,7.53,18.85,0,15.21-12.3,27.63-27.43,27.63Z"/>
      <path class="cls-1" d="M106.09,36.92c-5.14-5.54-12.38-8.66-19.9-8.62-7.36,0-14.84,3.16-19.66,8.25-.89-.08-1.78-.16-2.63-.16-14.44,0-23.38,12.14-23.38,23.38,.04,6.07,2.39,11.9,6.55,16.35,4.37,4.65,10.44,7.28,16.83,7.28h22.29c15.13,0,27.43-12.42,27.43-27.63-.08-7-2.75-13.72-7.53-18.85Zm-42.64,42.52c-10.72,0-19.38-8.7-19.38-19.42s8.62-19.3,19.3-19.38c4.73,0,9.35,1.74,12.87,4.9l.08,.08,8.05,8.26c1.34,1.37,1.29,3.56-.08,4.9-1.37,1.33-3.56,1.29-4.9-.08l-7.93-8.18c-5.17-4.45-12.99-3.88-17.44,1.29-1.94,2.23-2.99,5.1-2.99,8.05,0,6.8,5.78,12.54,12.62,12.54h1.58v.04c2.27,3.16,8.62,7,8.62,7h-10.4Zm39.73-6.96c-4.33,4.53-10.32,7.08-16.59,7.12-5.95,0-12.01-2.67-16.67-7.28l-10.6-10.68c-1.34-1.38-1.3-3.57,.04-4.9,.65-.65,1.5-.97,2.43-.97s1.82,.37,2.47,1.05l10.56,10.56c3.35,3.35,7.64,5.25,11.77,5.25,4.41,0,8.62-1.82,11.65-5.06,3.11-3.19,4.86-7.48,4.86-11.93,0-9.14-7.45-16.54-16.59-16.58-3.48,0-6.35,.69-9.18,2.67-.04-.04-.81-.53-1.66-1.05-.53-.32-1.09-.65-1.58-.89-.48-.28-1.94-.97-2.79-1.34-.2-.08-.48-.2-.61-.24h.04c4.37-4.08,9.79-6.07,15.78-6.07,12.99,0,23.46,10.52,23.5,23.5,0,6.27-2.43,12.34-6.83,16.83Z"/>
      <path class="cls-6" d="M110.01,55.65c0,6.27-2.43,12.34-6.83,16.83-4.33,4.53-10.32,7.08-16.59,7.12-5.95,0-12.01-2.67-16.67-7.28l-10.6-10.68c-1.34-1.38-1.3-3.57,.04-4.9,.65-.65,1.5-.97,2.43-.97s1.82,.37,2.47,1.05l10.56,10.56c3.35,3.35,7.64,5.25,11.77,5.25,4.41,0,8.62-1.82,11.65-5.06,3.11-3.19,4.86-7.48,4.86-11.93,0-9.14-7.45-16.54-16.59-16.58-3.48,0-6.35,.69-9.18,2.67-.04-.04-.81-.53-1.66-1.05-.53-.32-1.09-.65-1.58-.89-.48-.28-1.94-.97-2.79-1.34-.2-.08-.48-.2-.61-.24h.04c4.37-4.08,9.79-6.07,15.78-6.07,12.99,0,23.46,10.52,23.5,23.5Z"/>
      <path class="cls-4" d="M84.28,58.77c-1.37,1.33-3.56,1.29-4.9-.08l-7.93-8.18c-5.17-4.45-12.99-3.88-17.44,1.29-1.94,2.23-2.99,5.1-2.99,8.05,0,6.8,5.78,12.54,12.62,12.54h1.58v.04c2.27,3.16,8.62,7,8.62,7h-10.4c-10.72,0-19.38-8.7-19.38-19.42s8.62-19.3,19.3-19.38c4.73,0,9.35,1.74,12.87,4.9l.08,.08,8.05,8.26c1.34,1.37,1.29,3.56-.08,4.9Z"/>
    </g>
    <g>
      <g>
        <g>
          <path class="cls-17" d="M28.53,126.81l-.79,2.41c-.02,.08-.09,.14-.18,.13h-1.9c-.11,0-.15-.07-.13-.16l3.27-9.42c.11-.32,.17-.66,.16-1,0-.06,.04-.11,.1-.11h2.61c.08,0,.11,0,.13,.1l3.71,10.46c.03,.08,0,.15-.08,.15h-2.12c-.08,0-.15-.04-.18-.11l-.83-2.43h-3.77Zm3.19-2.04c-.33-1.08-.98-3.05-1.29-4.22h0c-.26,1.09-.85,2.89-1.28,4.22h2.56Z"/>
          <path class="cls-11" d="M35.63,125.38c0-2.33,1.77-4.29,4.74-4.29,.13,0,.3,0,.54,.03v-3.22c0-.06,.03-.11,.09-.11,0,0,.02,0,.02,0h2.06c.08,0,.1,.04,.1,.1v9.65c0,.4,.02,.8,.07,1.2,0,.08,0,.11-.11,.15-1.02,.43-2.11,.65-3.22,.65-2.42,0-4.28-1.37-4.28-4.15Zm5.3-2.32c-.19-.06-.4-.09-.6-.08-1.26,0-2.34,.77-2.34,2.29,0,1.62,.93,2.32,2.18,2.32,.25,.01,.51-.02,.75-.09l.02-4.43Z"/>
          <path class="cls-18" d="M52.38,125.28c0,2.56-1.66,4.26-4.02,4.26-2.79,0-4.03-2.11-4.03-4.22,0-2.32,1.55-4.23,4.07-4.23,2.63-.02,3.99,1.97,3.99,4.18Zm-5.74,0c0,1.43,.67,2.35,1.77,2.35,.95,0,1.67-.82,1.67-2.32,0-1.27-.53-2.33-1.77-2.33-.96,0-1.68,.84-1.68,2.3h0Z"/>
          <path class="cls-22" d="M55.66,117.78c.13,0,.16,0,.16,.13v3.35c.45-.12,.91-.18,1.37-.18,2.06-.1,3.82,1.49,3.92,3.55,0,.11,0,.22,0,.33,0,3.05-2.42,4.56-4.9,4.56-.87,0-1.73-.12-2.56-.38-.06-.03-.1-.09-.1-.16v-11.09c0-.08,.04-.11,.11-.11h2Zm1.13,5.23c-.33,0-.65,.04-.96,.13v4.41c.2,.05,.4,.07,.6,.07,1.24,0,2.37-.75,2.37-2.45,0-1.47-.87-2.16-2.01-2.16Z"/>
          <path class="cls-19" d="M64.16,125.9c.08,.93,.74,1.7,2.33,1.7,.69,.01,1.37-.11,2.01-.38,.05-.03,.1,0,.1,.08v1.55c.01,.09-.03,.17-.11,.2-.78,.35-1.64,.51-2.5,.47-3.09,0-4.15-2.11-4.15-4.13,0-2.26,1.39-4.31,3.97-4.31s3.45,1.91,3.45,3.53c0,.37-.03,.75-.11,1.11,0,.07-.06,.13-.13,.13-.56,.05-1.12,.07-1.68,.06l-3.19-.02Zm2.12-1.58c.27,.01,.55,0,.82-.04v-.11c-.02-.73-.63-1.31-1.36-1.29-.01,0-.03,0-.04,0-.82-.01-1.51,.62-1.57,1.44h2.15Z"/>
        </g>
        <g>
          <path class="cls-14" d="M81.7,129c0,.11-.03,.2-.13,.23-.74,.22-1.5,.32-2.27,.3-3.17,0-5.64-1.88-5.64-5.46,0-3.31,2.29-5.57,5.9-5.57,.72-.05,1.44,.05,2.12,.28,.08,.03,.13,.11,.11,.19v1.77c0,.15-.08,.15-.15,.11-.67-.27-1.4-.4-2.12-.36-2.21,0-3.53,1.36-3.53,3.48,0,2.55,1.86,3.53,3.58,3.53,.67,.02,1.35-.06,1.99-.26,.08-.04,.13,0,.13,.08v1.68Z"/>
          <path class="cls-13" d="M84.59,121.24c.09,0,.18,.05,.2,.15,.1,.29,.17,.6,.18,.91,.64-.77,1.59-1.22,2.6-1.22,.1,0,.13,.03,.13,.13v2.01c0,.08-.03,.11-.15,.11-1.17-.05-2.12,.31-2.47,.71v5.19c0,.1-.04,.13-.15,.13h-1.96c-.13,0-.16-.05-.16-.15v-5.64c0-.7,0-1.65-.08-2.21,0-.08,0-.11,.1-.11h1.77Z"/>
          <path class="cls-23" d="M90.32,125.9c.08,.93,.74,1.7,2.33,1.7,.69,.01,1.37-.11,2.01-.38,.05-.03,.1,0,.1,.08v1.55c.01,.09-.03,.17-.11,.2-.78,.35-1.64,.51-2.5,.47-3.09,0-4.15-2.11-4.15-4.13,0-2.26,1.39-4.31,3.95-4.31s3.45,1.91,3.45,3.53c.01,.37-.02,.73-.08,1.09,0,.07-.06,.13-.13,.13-.56,.05-1.12,.07-1.68,.06h-3.19Zm2.12-1.58c.27,.01,.55,0,.82-.04v-.11c-.02-.73-.63-1.31-1.36-1.29,0,0-.02,0-.03,0-.82-.01-1.51,.62-1.57,1.44h2.14Z"/>
          <path class="cls-24" d="M102.86,127.55c0,.44,0,.77,.04,1.16,0,.03,0,.07-.04,.08-1.12,.49-2.33,.74-3.56,.74-1.81,0-3.3-.83-3.3-2.73,0-1.73,1.52-2.65,3.69-2.65,.32-.01,.64,0,.96,.03v-.11c0-.31-.2-1.03-1.57-1.03-.74,0-1.48,.14-2.16,.44-.05,.03-.11,.01-.13-.04,0-.01-.01-.03-.01-.05v-1.64c-.01-.08,.04-.15,.11-.16,.81-.35,1.68-.52,2.56-.51,2.35,0,3.39,1.45,3.39,3.31v3.15Zm-2.21-1.68c-.27-.03-.54-.05-.82-.05-1.16,0-1.63,.38-1.63,.96s.41,.98,1.43,.98c.34,0,.69-.04,1.02-.15v-1.75Z"/>
          <path class="cls-9" d="M108.45,129.08c0,.1,0,.18-.11,.21-.47,.16-.96,.24-1.45,.23-1.42,0-2.26-.7-2.26-2.33v-4.05h-.97c-.1,0-.13-.05-.13-.15v-1.6c0-.11,.04-.15,.15-.15h.98c.02-.66,.07-1.32,.16-1.98,0-.08,.07-.14,.15-.15l1.91-.25c.08,0,.13,0,.13,.1-.05,.51-.08,1.47-.08,2.27h1.5c.1,0,.13,.03,.13,.13v1.65c0,.08-.03,.1-.11,.11h-1.54v3.5c0,.72,.21,1.05,.88,1.05,.19,0,.37-.03,.56-.07,.07,0,.11,0,.11,.11v1.36Z"/>
          <path class="cls-7" d="M109.48,119.1c-.02-.67,.51-1.24,1.19-1.26,.03,0,.06,0,.09,0,.65-.04,1.22,.45,1.26,1.1,0,.05,0,.1,0,.16,.04,.66-.46,1.23-1.12,1.28-.06,0-.12,0-.17,0-.65,.03-1.21-.47-1.24-1.13,0-.05,0-.1,0-.15Zm.11,2.27c0-.08,.04-.13,.13-.13h2.01c.1,0,.13,.03,.13,.13v7.84c0,.1,0,.15-.15,.15h-1.96c-.11,0-.16-.05-.16-.15v-7.84Z"/>
          <path class="cls-15" d="M115.45,129.36c-.08,0-.16-.04-.2-.11-.62-1.84-1.99-5.99-2.65-7.87-.02-.05,.02-.11,.07-.13,.01,0,.03,0,.05,0h2.14c.11,0,.15,.03,.18,.11,1.06,3.67,1.42,5.13,1.58,5.86h.03c.16-.73,.59-2.21,1.73-5.86,.04-.08,.07-.11,.15-.11h1.9c.06,0,.1,.04,.11,.1,0,.02,0,.03-.01,.05-.7,1.93-2.07,6.06-2.73,7.84-.05,.08-.08,.13-.19,.13h-2.16Z"/>
          <path class="cls-3" d="M122.82,125.9c.08,.93,.74,1.7,2.33,1.7,.69,.01,1.37-.12,2.01-.38,.05-.03,.1,0,.1,.08v1.55c.01,.09-.03,.17-.11,.2-.78,.35-1.64,.51-2.5,.47-3.09,0-4.15-2.11-4.15-4.13,0-2.26,1.39-4.31,3.95-4.31s3.45,1.91,3.45,3.53c.01,.37-.02,.73-.08,1.09,0,.07-.06,.13-.13,.13-.56,.05-1.12,.07-1.68,.06h-3.19Zm2.12-1.58c.27,.01,.55,0,.82-.04v-.11c-.02-.73-.63-1.31-1.36-1.29,0,0-.02,0-.03,0-.82-.01-1.51,.62-1.57,1.44h2.14Z"/>
        </g>
      </g>
      <g>
        <path class="cls-8" d="M65.88,144.49c0,.11-.03,.2-.13,.23-.74,.22-1.5,.32-2.27,.3-3.17,0-5.63-1.88-5.63-5.46,0-3.31,2.29-5.57,5.89-5.57,.72-.05,1.44,.05,2.12,.28,.08,.03,.13,.11,.11,.19v1.77c0,.15-.08,.15-.15,.11-.67-.27-1.4-.4-2.12-.36-2.21,0-3.53,1.36-3.53,3.48,0,2.55,1.86,3.53,3.58,3.53,.67,.02,1.35-.07,2-.26,.08-.04,.13,0,.13,.08v1.68Z"/>
        <path class="cls-21" d="M66.93,133.41c0-.08,.03-.13,.16-.13h1.94c.11,0,.16,.05,.16,.13v9.14c0,.44,.15,.62,.54,.62,.1,0,.2,0,.3,0,.07,0,.08,.03,.08,.11v1.4c0,.13,0,.16-.11,.2-.33,.11-.67,.16-1.02,.15-1.17,0-2.06-.44-2.06-2.26v-9.37Z"/>
        <path class="cls-10" d="M78.62,140.78c0,2.56-1.67,4.26-4.02,4.26-2.79,0-4.03-2.11-4.03-4.22,0-2.32,1.55-4.23,4.07-4.23,2.63-.02,3.99,1.97,3.99,4.18Zm-5.74,0c0,1.43,.67,2.35,1.77,2.35,.94,0,1.66-.82,1.66-2.32,0-1.27-.52-2.33-1.77-2.33-.96,0-1.66,.84-1.66,2.3Z"/>
        <path class="cls-16" d="M86.83,143.04c0,.56,.03,1.12,.1,1.68,0,.1-.03,.13-.15,.13h-1.73c-.13,0-.16-.04-.2-.11-.03-.15-.08-.36-.1-.51-.62,.53-1.42,.81-2.24,.79-1.63,0-2.76-.88-2.76-3.15v-5c0-.11,.03-.13,.15-.13h1.99c.1,0,.11,.03,.11,.13v4.74c0,.88,.38,1.45,1.28,1.45,.47,.01,.93-.16,1.28-.47v-5.74c0-.1,.05-.13,.16-.13h1.97c.11,0,.13,.03,.13,.13v6.19Z"/>
        <path class="cls-20" d="M87.99,140.87c0-2.33,1.77-4.29,4.74-4.29,.13,0,.3,0,.54,.03v-3.22c0-.06,.04-.11,.1-.11,0,0,.01,0,.02,0h2.06c.08,0,.1,.04,.1,.1v9.65c0,.4,.02,.8,.07,1.2,0,.08,0,.11-.11,.15-1.02,.43-2.11,.65-3.22,.65-2.41,0-4.28-1.37-4.28-4.15Zm5.27-2.3c-.19-.06-.4-.09-.6-.08-1.26,0-2.33,.77-2.33,2.29,0,1.62,.93,2.32,2.17,2.32,.26,.01,.52-.02,.77-.1v-4.42Z"/>
      </g>
    </g>
  </g>
  <g class="cls-12">
    <path class="cls-2" d="M0,0V153.44H153.44V0H0ZM145.04,145.04H8.4V8.4H145.04V145.04Z"/>
  </g>
</svg>