<?xml version="1.0" encoding="UTF-8"?>
<svg id="Layer_2" data-name="Layer 2" xmlns="http://www.w3.org/2000/svg" xmlns:xlink="http://www.w3.org/1999/xlink" viewBox="0 0 153.44 153.44">
  <defs>
    <style>
      .cls-1 {
        fill: blue;
        opacity: .5;
      }

      .cls-2 {
        opacity: 0;
      }

      .cls-3 {
        fill: url(#linear-gradient);
      }
    </style>
    <linearGradient id="linear-gradient" x1="76.72" y1="-40.05" x2="76.72" y2="222.51" gradientUnits="userSpaceOnUse">
      <stop offset="0" stop-color="#b5f200"/>
      <stop offset="1" stop-color="#00aaca"/>
    </linearGradient>
  </defs>
  <path class="cls-3" d="M8.4,8.4V145.04H145.04V8.4H8.4ZM82.81,114.97c0,13.3-7.79,19.34-19.17,19.34-10.28,0-16.24-5.32-19.27-11.73l10.46-6.32c2.02,3.58,3.85,6.61,8.27,6.61s6.87-1.65,6.87-8.07v-43.67h12.84v43.84Zm30.34,19.37c-11.92,0-19.63-5.68-23.39-13.13l10.43-6.06c2.75,4.5,6.32,7.8,12.66,7.8,5.33,0,8.72-2.66,8.72-6.33,0-4.41-3.49-5.97-9.35-8.53l-3.21-1.38c-9.26-3.95-15.41-8.88-15.41-19.35,0-9.63,7.33-16.95,18.8-16.95,8.16,0,14.03,2.84,18.26,10.27l-10,6.42c-2.2-3.94-4.57-5.49-8.26-5.49s-6.15,2.38-6.15,5.49c0,3.85,2.39,5.41,7.89,7.8l3.21,1.38c10.92,4.68,17.08,9.44,17.08,20.17,0,11.56-9.09,17.89-21.28,17.89Z"/>
  <g class="cls-2">
    <path class="cls-1" d="M0,0V153.44H153.44V0H0ZM145.04,145.04H8.4V8.4H145.04V145.04Z"/>
  </g>
</svg>