<?xml version="1.0" encoding="UTF-8"?><svg id="Layer_1" xmlns="http://www.w3.org/2000/svg" xmlns:xlink="http://www.w3.org/1999/xlink" viewBox="0 0 512 512"><defs><linearGradient id="linear-gradient" x1="479.16" y1="317.57" x2="-216.15" y2="613.44" gradientUnits="userSpaceOnUse"><stop offset="0" stop-color="#b5f200"/><stop offset="1" stop-color="#00aaca"/></linearGradient><linearGradient id="linear-gradient-2" x1="750.4" y1="-52.32" x2="55.08" y2="243.55" xlink:href="#linear-gradient"/><linearGradient id="linear-gradient-3" x1="750.5" y1="-52.65" x2="55.18" y2="243.22" xlink:href="#linear-gradient"/><linearGradient id="linear-gradient-4" x1="785.51" y1="29.64" x2="90.2" y2="325.51" xlink:href="#linear-gradient"/><linearGradient id="linear-gradient-5" x1="773.57" y1="1.57" x2="78.25" y2="297.44" xlink:href="#linear-gradient"/></defs><g id="Layer_2"><g id="Layer_1-2"><path d="m150.1,399.73c-2.1-2.52-4.59-4.69-7.38-6.41l-1.06-.63c2.23-1.48,4.25-3.27,5.99-5.3,3.87-4.5,6.01-10.24,6.03-16.18.18-5.12-1.03-10.18-3.49-14.67-2.33-4.04-5.56-7.49-9.45-10.07-3.99-2.62-8.39-4.53-13.03-5.65-4.75-1.18-9.63-1.79-14.52-1.84h-33.11c-2.25-.06-4.13,1.72-4.19,3.97v105.83c.06,2.25,1.94,4.03,4.19,3.97h35.66c5.1-.05,10.16-.82,15.03-2.3,4.71-1.4,9.15-3.6,13.11-6.51,3.86-2.87,7.05-6.56,9.32-10.8,2.4-4.59,3.58-9.72,3.44-14.9.04-3.44-.52-6.86-1.66-10.1-1.13-3.07-2.79-5.93-4.88-8.44h0Zm-20.28-23.28c-.93,1.59-2.19,2.97-3.69,4.04-1.68,1.19-3.54,2.08-5.51,2.65-2.15.64-4.38.99-6.62,1.03h-15.53v-25.71h15.08c2.4.04,4.79.34,7.12.89,1.99.45,3.88,1.25,5.6,2.35,1.46.95,2.67,2.24,3.53,3.76.91,1.74,1.36,3.68,1.29,5.65.07,1.86-.36,3.71-1.26,5.35h0Zm-31.31,26.86h18.21c2.43.06,4.84.47,7.15,1.23,1.98.64,3.82,1.65,5.43,2.98,1.49,1.24,2.68,2.8,3.49,4.55.89,2,1.3,4.19,1.21,6.37.04,2.14-.43,4.26-1.37,6.18-.9,1.78-2.19,3.34-3.76,4.57-1.74,1.34-3.69,2.38-5.78,3.06-2.26.75-4.62,1.16-7,1.19h-17.58v-30.13Zm120.35-61.53c-.6-1.68-2.2-2.8-3.99-2.77h-11.79c-1.77-.02-3.37,1.08-3.97,2.75l-35.93,105.83c-.41,1.21-.19,2.55.6,3.56.79,1.03,2.01,1.64,3.31,1.66h14.14c1.79.02,3.4-1.1,3.99-2.8l8.03-24.6h30.96l7.88,24.59c.58,1.71,2.2,2.85,4.01,2.81h14.06c1.3-.02,2.52-.63,3.31-1.66.79-1.01,1.02-2.35.61-3.56l-35.22-105.82Zm-.88,63.91h-18.21l9.21-28.38,9.01,28.38Zm121.18-1.87c-1.91-2.45-4.14-4.65-6.62-6.52-2.47-1.87-5.1-3.53-7.85-4.97-2.78-1.45-5.65-2.73-8.59-3.82-2.85-1.06-5.75-2.04-8.63-2.9-2.45-.71-5.07-1.56-7.8-2.48-2.46-.85-4.83-1.96-7.05-3.31-1.88-1.1-3.52-2.56-4.83-4.29-1.12-1.58-1.7-3.49-1.66-5.43-.06-1.93.39-3.84,1.31-5.55.9-1.62,2.15-3.01,3.66-4.09,1.68-1.19,3.56-2.08,5.55-2.62,4.67-1.33,9.64-1.23,14.26.3,2.04.73,3.91,1.86,5.51,3.31,1.58,1.47,2.85,3.24,3.76,5.2,1.04,2.28,1.73,4.71,2.04,7.2.32,2.03,2.1,3.52,4.16,3.48h14.52c1.11,0,2.18-.42,2.98-1.19.78-.75,1.21-1.79,1.19-2.86-.05-5.19-1.33-10.3-3.74-14.9-2.32-4.36-5.51-8.2-9.37-11.28-3.97-3.13-8.45-5.54-13.25-7.14-9.63-3.2-20.01-3.35-29.72-.41-4.63,1.34-8.99,3.46-12.91,6.26-3.81,2.74-7.02,6.25-9.4,10.3-2.49,4.3-3.78,9.19-3.71,14.16-.1,4.9,1.21,9.74,3.76,13.92,2.42,3.86,5.55,7.22,9.22,9.92,3.7,2.73,7.72,4.99,11.97,6.76,4.17,1.76,8.28,3.31,12.37,4.5,2.65.81,5.41,1.71,8.28,2.72,2.52.87,4.94,2.01,7.2,3.41,1.93,1.17,3.59,2.72,4.88,4.57,1.17,1.78,1.74,3.88,1.66,6.01.07,1.92-.41,3.82-1.39,5.48-1,1.6-2.34,2.97-3.92,4.01-1.78,1.15-3.75,1.99-5.81,2.47-5.08,1.24-10.39,1.14-15.41-.3-2.31-.7-4.47-1.82-6.37-3.31-1.83-1.45-3.35-3.24-4.49-5.28-1.24-2.3-2.05-4.81-2.37-7.4-.33-2.03-2.1-3.5-4.16-3.46h-14.45c-1.12,0-2.19.43-3,1.21-.78.75-1.2,1.8-1.18,2.88.09,5.39,1.57,10.67,4.29,15.33,2.61,4.4,6.09,8.22,10.23,11.23,4.24,3.07,8.97,5.41,13.99,6.92,5.12,1.57,10.45,2.37,15.81,2.37,4.88,0,9.73-.65,14.44-1.92,4.71-1.22,9.18-3.2,13.25-5.88,3.94-2.62,7.27-6.04,9.79-10.05,2.65-4.35,4.01-9.37,3.91-14.47.03-3.38-.53-6.74-1.66-9.93-1.11-2.93-2.66-5.68-4.62-8.13h0Zm92.74-64.8h-13.38c-2.25-.06-4.13,1.72-4.19,3.97v41.53h-37.27v-41.53c-.06-2.25-1.94-4.03-4.19-3.97h-13.25c-2.25-.06-4.13,1.72-4.19,3.97v105.83c.06,2.25,1.94,4.03,4.19,3.97h13.25c2.25.06,4.13-1.72,4.19-3.97v-44.94h37.27v44.94c.06,2.25,1.94,4.03,4.19,3.97h13.38c2.25.06,4.13-1.72,4.19-3.97v-105.83c-.06-2.25-1.94-4.03-4.19-3.97ZM88.72,471.14h-5.07v13.54h-2.7v-13.54h-4.97v-2.14h12.8l-.07,2.14Zm15.58,13.54h-2.65v-7h-5.61v7h-2.63v-15.68h2.63v6.62h5.61v-6.62h2.65v15.68Zm15.56-7.02h-6.79v4.97h7.93v2.1h-10.65v-15.68h10.58v2.14h-7.86v4.42h6.79v2.05Zm23.49,7.02v-15.68h5.27c.75,0,1.49.09,2.22.26.64.14,1.25.4,1.8.76.51.33.93.79,1.23,1.32.31.59.46,1.24.43,1.9.01.72-.23,1.42-.68,1.99-.48.57-1.1,1.01-1.8,1.27.43.11.85.29,1.23.53.34.22.65.49.89.81.24.31.43.67.56,1.04.13.4.2.81.2,1.23.02.68-.13,1.36-.43,1.97-.28.56-.69,1.05-1.19,1.42-.54.39-1.16.69-1.8.86-.73.21-1.49.31-2.25.31l-5.66-.02Zm2.73-9.07h2.6c.39,0,.77-.05,1.14-.15.33-.09.64-.23.91-.43.25-.18.46-.42.61-.7.15-.29.23-.61.23-.94,0-.35-.07-.69-.22-1.01-.14-.28-.35-.52-.61-.7-.28-.19-.6-.32-.93-.4-.38-.08-.77-.13-1.16-.13h-2.58v4.45Zm0,1.97v4.97h2.96c.4,0,.8-.06,1.18-.18.33-.11.64-.28.91-.5.26-.21.47-.47.61-.76.15-.32.22-.66.22-1.01,0-.36-.06-.72-.2-1.06-.12-.3-.31-.57-.55-.79-.26-.22-.55-.39-.88-.5-.37-.12-.77-.18-1.16-.18l-3.1.02Zm25.03.28c0,.9-.13,1.8-.38,2.67-.23.81-.6,1.58-1.11,2.25-.49.65-1.13,1.18-1.85,1.56-.81.4-1.71.6-2.62.58-1.73.05-3.37-.75-4.4-2.14-.5-.68-.87-1.44-1.09-2.25-.25-.87-.37-1.76-.36-2.67v-2c0-.61.05-1.21.17-1.8.1-.57.26-1.12.48-1.66.21-.51.49-.99.81-1.44.31-.44.69-.82,1.13-1.14.45-.32.95-.58,1.47-.75.58-.18,1.19-.27,1.8-.26,1.75-.05,3.41.74,4.47,2.14.51.67.89,1.44,1.13,2.25.25.87.38,1.76.38,2.67l-.02,2Zm-2.73-2.02c0-.59-.06-1.18-.17-1.76-.09-.54-.27-1.07-.53-1.56-.24-.44-.58-.82-.99-1.11-.46-.3-.99-.45-1.54-.43-.54-.02-1.07.13-1.52.43-.41.29-.73.67-.96,1.11-.25.49-.42,1.01-.5,1.56-.09.58-.14,1.17-.15,1.76v2.02c0,.59.06,1.18.17,1.76.08.54.25,1.07.5,1.56.22.45.55.83.96,1.13.45.3.98.45,1.52.43.55.02,1.08-.13,1.54-.43.41-.29.75-.68.99-1.13.26-.49.44-1.01.53-1.56.1-.58.16-1.17.17-1.76l-.02-2.02Zm18.86-6.82v10.5c0,.75-.14,1.5-.41,2.2-.25.62-.63,1.18-1.11,1.66-.47.47-1.03.85-1.66,1.09-.73.26-1.5.39-2.27.38-.76.01-1.51-.12-2.22-.38-1.3-.49-2.32-1.5-2.81-2.8-.28-.71-.42-1.46-.41-2.22v-10.5h2.67v10.5c0,.45.07.89.2,1.32.1.38.28.73.51,1.04.22.29.51.52.84.68.37.17.77.26,1.18.25.42,0,.83-.08,1.21-.25.34-.15.64-.39.88-.68.24-.31.42-.66.53-1.04.13-.43.19-.88.2-1.32v-10.5l2.68.07Zm11.39,9.52h-2.77v6.11h-2.73v-15.68h5.22c.79,0,1.57.11,2.33.31.67.17,1.3.47,1.85.88.52.39.93.89,1.21,1.47.3.65.45,1.36.43,2.07,0,.49-.07.98-.22,1.44-.14.42-.35.82-.61,1.18-.27.35-.58.67-.94.93-.38.27-.79.5-1.23.68l3.49,6.62v.13h-2.9l-3.15-6.14Zm-2.77-2.09h2.5c.42,0,.84-.06,1.24-.18.36-.11.69-.29.98-.53.28-.22.5-.51.65-.83.16-.35.24-.74.23-1.13,0-.4-.07-.79-.22-1.16-.14-.32-.35-.61-.61-.84-.29-.24-.62-.42-.98-.53-.42-.12-.85-.18-1.29-.18h-2.48l-.02,5.38Zm24.47,8.23h-2.73l-5.36-10.78v10.78h-2.75v-15.68h2.75l5.35,10.76v-10.76h2.75v15.68Zm15.58-7.02h-6.79v4.97h7.93v2.1h-10.65v-15.68h10.58v2.14h-7.86v4.42h6.79v2.05Zm17.12,1.19h-9.07v-2.07h9.07v2.07Zm14.37,2.2h-5.15l-1.13,3.64h-2.81l5.35-15.68h2.32l5.25,15.68h-2.8l-1.03-3.64Zm-4.45-2.2h3.78l-1.87-6.14-1.9,6.14Zm24.11,3.87c-.29.33-.62.62-.98.88-.4.28-.83.51-1.27.7-.49.2-1,.35-1.52.45-.58.11-1.17.17-1.76.17-.91.02-1.81-.17-2.63-.55-.75-.35-1.41-.87-1.94-1.51-.54-.67-.95-1.43-1.21-2.25-.28-.9-.43-1.84-.43-2.78v-1.94c0-.94.13-1.88.41-2.78.25-.82.65-1.58,1.18-2.25.5-.63,1.14-1.15,1.87-1.51.79-.38,1.66-.58,2.53-.56.77-.01,1.55.1,2.28.33.61.21,1.17.54,1.66.96.49.43.87.95,1.14,1.54.29.64.47,1.32.53,2.02h-2.67c-.06-.39-.16-.78-.31-1.14-.13-.32-.33-.62-.58-.86-.25-.24-.55-.43-.88-.55-.39-.13-.81-.19-1.23-.18-.52-.02-1.03.12-1.47.4-.42.28-.77.65-1.03,1.09-.29.51-.49,1.07-.6,1.66-.13.62-.2,1.25-.2,1.89v1.95c0,.63.08,1.26.22,1.87.11.59.32,1.15.63,1.66.27.45.65.82,1.09,1.09.5.29,1.08.43,1.66.41h.79c.26-.03.52-.08.78-.15.24-.07.46-.16.68-.28.19-.1.36-.24.5-.41v-3.13h-2.98v-2h5.65l.08,5.78Zm13.51-1.67h-5.15l-1.13,3.64h-2.81l5.35-15.68h2.38l5.25,15.68h-2.8l-1.09-3.64Zm-4.45-2.2h3.78l-1.87-6.14-1.9,6.14Zm13.41-9.83h9.8v2.14h-3.56v11.41h3.56v2.14h-9.8v-2.14h3.49v-11.41h-3.49v-2.14Zm26.89,15.66h-2.73l-5.36-10.78v10.78h-2.73v-15.68h2.75l5.35,10.76v-10.76h2.75l-.02,15.68Zm31.04-4.02c0-.34-.08-.68-.25-.98-.18-.29-.41-.55-.7-.75-.33-.23-.68-.42-1.06-.56-.41-.17-.86-.31-1.34-.45-.65-.18-1.3-.4-1.92-.66-.59-.25-1.15-.58-1.66-.98-.48-.37-.89-.82-1.21-1.34-.32-.54-.48-1.16-.46-1.79,0-.64.15-1.27.46-1.82.31-.53.72-1,1.23-1.36.54-.39,1.15-.68,1.79-.86.69-.2,1.41-.3,2.14-.3.75,0,1.5.11,2.22.35.65.22,1.27.55,1.8.98.51.41.93.92,1.23,1.51.3.6.46,1.26.46,1.94h-2.72c-.03-.37-.12-.73-.26-1.08-.14-.32-.34-.61-.6-.84-.27-.24-.58-.43-.93-.55-.41-.14-.83-.2-1.26-.2-.38,0-.76.05-1.13.15-.32.09-.63.24-.89.45-.25.19-.45.42-.6.7-.15.29-.22.61-.22.93,0,.34.1.67.3.94.21.28.46.53.76.71.34.22.71.4,1.09.53.41.14.84.28,1.29.4.67.19,1.33.43,1.97.71.6.26,1.15.61,1.66,1.03.46.38.84.85,1.13,1.37.29.56.43,1.18.41,1.8.01.64-.15,1.28-.46,1.84-.31.53-.73.99-1.24,1.34-.55.37-1.16.65-1.8.81-.7.19-1.43.28-2.15.28-.51,0-1.01-.04-1.51-.13-.49-.09-.97-.23-1.42-.41-.45-.18-.88-.42-1.27-.7-.39-.27-.73-.59-1.03-.96-.61-.77-.95-1.72-.94-2.7h2.73c.03.43.14.85.33,1.24.17.34.42.64.73.88.32.24.68.42,1.06.53.44.12.89.19,1.34.18.38,0,.77-.04,1.14-.13.33-.08.64-.22.93-.41.26-.18.47-.41.63-.68.15-.3.22-.63.2-.96h0Zm18.71,4.02h-2.63v-7h-5.63v7h-2.65v-15.68h2.63v6.62h5.65v-6.62h2.65l-.02,15.68Zm15.58-7.02h-6.79v4.97h7.93v2.1h-10.66v-15.68h10.58v2.14h-7.86v4.42h6.8v2.05Zm9.93,4.92h7.86v2.1h-10.58v-15.68h2.72v13.58Zm16.56,0h7.86v2.1h-10.58v-15.68h2.72v13.58Z" style="fill:url(#linear-gradient);"/></g></g><path d="m354.65,80.57l-82.69-49.09c-9.83-5.86-22.08-5.86-31.91,0l-82.7,49.09c-9.95,6-16,16.79-15.94,28.41v98.17c-.05,11.61,6,22.4,15.94,28.4l82.69,49.07c9.83,5.86,22.08,5.86,31.9,0l82.69-49.07c9.95-6,16.02-16.79,15.96-28.41v-98.15c.06-11.62-5.99-22.41-15.94-28.41Zm-64.04,153.35l.13,7.05c-.01.88-.47,1.69-1.21,2.15l-4.17,2.41c-.66.33-1.21,0-1.23-.93v-6.94c-3.57,1.49-7.2,1.84-9.52.91-.43-.17-.63-.81-.45-1.56l1.51-6.37c.12-.5.38-.97.74-1.32.12-.12.25-.21.4-.28.22-.1.46-.1.68,0,2.95.8,6.1.4,8.76-1.11,3.84-1.85,6.33-5.68,6.47-9.93,0-3.58-1.97-5.07-6.62-5.1-6.01,0-11.59-1.16-11.71-9.93.14-7.66,3.7-14.87,9.7-19.64l-.3-7.22c0-.89.45-1.72,1.21-2.18l4.12-2.63c.66-.33,1.21,0,1.22.94l.07,7.19c2.48-1.13,5.24-1.46,7.92-.96.51.14.73.83.53,1.65l-1.57,6.31c-.12.47-.36.91-.71,1.25-.12.12-.26.22-.41.3-.18.1-.4.14-.62.1-2.6-.58-5.33-.14-7.63,1.22-3.36,1.51-5.55,4.82-5.65,8.5,0,3.31,1.65,4.22,7.43,4.32,7.63.14,10.94,3.46,11.03,11.17-.18,8.03-3.89,15.58-10.13,20.64Zm42.73-10.32l-20.92,12.72c-.55.31-.99.05-.99-.61v-5.42c.02-.59.39-1.12.94-1.34l20.6-12.32c.5-.31.98-.05,1,.56v4.76c.13.63-.12,1.27-.63,1.65Zm14.92-122.4l-78.17,48.41c-9.75,5.68-16.94,12.08-16.95,23.84v96.4c0,7.03,2.83,11.59,7.2,12.93-1.43.26-2.89.4-4.34.41-4.6,0-9.11-1.24-13.06-3.59l-82.69-49.08c-8.17-4.95-13.15-13.82-13.11-23.38v-98.17c-.04-9.56,4.94-18.43,13.11-23.38l82.69-49.09c8.05-4.8,18.08-4.8,26.13,0l82.62,49.09c6.81,4.13,11.45,11.04,12.7,18.91-2.75-5.84-8.93-7.45-16.12-3.31Z" style="fill:url(#linear-gradient-2);"/><g style="opacity:.3;"><path d="m364.62,104.51c-2.75-5.84-8.93-7.45-16.12-3.31l-78.17,48.41c-9.75,5.68-16.94,12.08-16.95,23.84v96.4c0,7.03,2.83,11.59,7.2,12.93-1.43.26-2.89.4-4.34.41-4.6,0-9.11-1.24-13.06-3.59l-82.69-49.08c-8.17-4.95-13.15-13.82-13.11-23.38v-98.17c-.04-9.56,4.94-18.43,13.11-23.38l82.69-49.09c8.05-4.8,18.08-4.8,26.13,0l82.62,49.09c6.81,4.13,11.45,11.04,12.7,18.91Z" style="fill:url(#linear-gradient-3);"/><path d="m333.58,223.61l-20.92,12.72c-.55.31-.99.05-.99-.61v-5.42c.02-.59.39-1.12.94-1.34l20.6-12.32c.5-.31.98-.05,1,.56v4.76c.13.63-.12,1.27-.63,1.65Z" style="fill:url(#linear-gradient-4);"/><path d="m290.85,233.92l.13,7.05c-.01.88-.47,1.69-1.21,2.15l-4.17,2.41c-.66.33-1.21,0-1.23-.93v-6.94c-3.57,1.49-7.2,1.84-9.52.91-.43-.17-.63-.81-.45-1.56l1.51-6.37c.12-.5.38-.97.74-1.32.12-.12.25-.21.4-.28.22-.1.46-.1.68,0,2.95.8,6.1.4,8.76-1.11,3.84-1.85,6.33-5.68,6.47-9.93,0-3.58-1.97-5.07-6.62-5.1-6.01,0-11.59-1.16-11.71-9.93.14-7.66,3.7-14.87,9.7-19.64l-.3-7.22c0-.89.45-1.72,1.21-2.18l4.12-2.63c.66-.33,1.21,0,1.22.94l.07,7.19c2.48-1.13,5.24-1.46,7.92-.96.51.14.73.83.53,1.65l-1.57,6.31c-.12.47-.36.91-.71,1.25-.12.12-.26.22-.41.3-.18.1-.4.14-.62.1-2.6-.58-5.33-.14-7.63,1.22-3.36,1.51-5.55,4.82-5.65,8.5,0,3.31,1.65,4.22,7.43,4.32,7.63.14,10.94,3.46,11.03,11.17-.18,8.03-3.89,15.58-10.13,20.64Z" style="fill:url(#linear-gradient-5);"/></g></svg>