<?xml version="1.0" encoding="UTF-8"?><svg id="Layer_1" xmlns="http://www.w3.org/2000/svg" xmlns:xlink="http://www.w3.org/1999/xlink" viewBox="0 0 512 512"><defs><linearGradient id="linear-gradient" x1="457.38" y1="352.61" x2="-161.32" y2="618.04" gradientUnits="userSpaceOnUse"><stop offset="0" stop-color="#b5f200"/><stop offset="1" stop-color="#00aaca"/></linearGradient><linearGradient id="linear-gradient-2" x1="421.94" y1="269.99" x2="-196.76" y2="535.42" xlink:href="#linear-gradient"/><linearGradient id="linear-gradient-3" x1="411.39" y1="245.39" x2="-207.32" y2="510.82" xlink:href="#linear-gradient"/><linearGradient id="linear-gradient-4" x1="434.43" y1="299.1" x2="-184.27" y2="564.53" xlink:href="#linear-gradient"/><linearGradient id="linear-gradient-5" x1="446.83" y1="328.02" x2="-171.87" y2="593.44" xlink:href="#linear-gradient"/><linearGradient id="linear-gradient-6" x1="400.99" y1="221.15" x2="-217.72" y2="486.57" xlink:href="#linear-gradient"/><linearGradient id="linear-gradient-7" x1="466.08" y1="372.87" x2="-152.63" y2="638.3" xlink:href="#linear-gradient"/><linearGradient id="linear-gradient-8" x1="373.06" y1="131.15" x2="102.15" y2="317.09" xlink:href="#linear-gradient"/><linearGradient id="linear-gradient-9" x1="383.9" y1="146.94" x2="112.99" y2="332.88" xlink:href="#linear-gradient"/><linearGradient id="linear-gradient-10" x1="383.54" y1="146.42" x2="112.63" y2="332.36" xlink:href="#linear-gradient"/></defs><g id="vlpa"><path d="m382.98,370.65c.66-7.38,6.36-12.06,15.08-12.06s14.42,4.68,15.08,12.06h-30.16Zm29.27,18.22c-2.23,5.47-7.49,8.7-14.63,8.7-8.94,0-14.96-5.58-15.21-14.4h51.41v-2.59c0-22.09-12.97-34.51-36.21-34.51s-36.21,12.53-36.21,32.18,13.86,32.29,36.21,32.29c13.41,0,23.81-4.6,30.22-12.68l-15.59-8.99h0Z" style="fill:url(#linear-gradient);"/><path d="m154.85,370.69c.68-7.38,6.38-12.06,15.1-12.06s14.41,4.68,15.08,12.06h-30.18Zm29.29,18.22c-2.23,5.48-7.49,8.72-14.65,8.72-8.93,0-14.96-5.6-15.2-14.42h51.4v-2.58c0-22.1-12.96-34.52-36.2-34.52s-36.19,12.54-36.19,32.19,13.85,32.29,36.19,32.29c13.41,0,23.82-4.58,30.24-12.67l-15.59-8.99h0Z" style="fill:url(#linear-gradient-2);"/><rect x="110.15" y="332.72" width="18.54" height="75.85" style="fill:url(#linear-gradient-3);"/><path d="m210.3,352.86h18.64v4.52c6.6-7.04,14.53-10.61,23.47-10.61,10.3,0,18.09,3.56,22.12,9.62,3.36,5.01,3.58,11.05,3.58,18.99v33.17h-18.67v-29.15c0-12.09-2.43-17.68-13.05-17.68s-17.44,6.39-17.44,17.12v29.7h-18.64v-55.7h0Z" style="fill:url(#linear-gradient-4);"/><path d="m338.16,379.19c0,10.38-6.94,17.19-17.67,17.19s-17.68-6.58-17.68-17.07,6.84-17.22,17.68-17.22,17.67,6.69,17.67,17.1Zm0-23.81c-4.71-5.05-11.53-7.83-21.01-7.83-20.45,0-34.42,12.61-34.42,31.52s13.87,31.5,34.08,31.5c9.27,0,16.07-2.34,21.35-7.6v5.58h18.66v-80.66l-18.66,4.81v22.68Z" style="fill:url(#linear-gradient-5);"/><path d="m67.77,362.1c10.84,0,17.66,6.57,17.66,17.22s-6.92,17.07-17.66,17.07-17.65-6.81-17.65-17.19,6.93-17.1,17.65-17.1Zm-17.65-29.38l-18.66-4.81v80.66h18.66v-5.58c5.25,5.25,12.07,7.6,21.34,7.6,20.23,0,34.08-12.96,34.08-31.5s-13.97-31.52-34.41-31.52c-9.5,0-16.32,2.77-21.01,7.83v-22.68h0Z" style="fill:url(#linear-gradient-6);"/><path d="m438.42,408.58v-55.7h18.66v3.44c5.59-6.73,11.5-10.08,18.22-10.08,1.33,0,3.01.22,5.24.44v15.88c-1.8-.24-3.8-.24-5.93-.24-10.85,0-17.54,7.15-17.54,19.32v26.93h-18.66Z" style="fill:url(#linear-gradient-7);"/></g><path d="m365.7,214.79c-1.47-10.37-5.06-20.1-10.59-28.97-5.05-8.15-11.57-15.29-19.31-21.29h.02s-78.15-60.02-78.15-60.02c-.07-.05-.13-.11-.2-.16-5.13-3.94-13.75-3.92-19.39.02-5.7,3.99-6.36,10.59-1.28,14.75l-.02.02,32.59,26.5-99.35.11h-.14c-8.21,0-16.1,5.4-17.66,12.2-1.61,6.94,3.97,12.69,12.51,12.72l-.02.03,50.36-.1-89.86,68.97c-.12.08-.24.17-.35.25-8.47,6.49-11.22,17.28-5.87,24.12,5.42,6.94,16.94,6.96,25.5.04l49.04-40.14s-.72,5.42-.66,8.67c.06,3.26,1.1,9.61,2.66,14.56,3.28,10.49,8.85,20.19,16.6,28.74,7.95,8.79,17.74,15.85,29.05,20.86,11.89,5.26,24.76,7.95,38.14,7.92,13.36-.02,26.24-2.75,38.12-8.06,11.31-5.06,21.1-12.15,29.03-20.94,7.74-8.59,13.3-18.31,16.6-28.79,1.65-5.3,2.7-10.68,3.12-16.08.41-5.31.24-10.64-.52-15.96Zm-36,18.94c-2.24,6.15-5.86,11.92-10.8,16.95h0c-10.1,10.3-24.25,16.13-39.56,16.17-15.33.02-29.47-5.76-39.58-16.04-4.94-5.01-8.57-10.77-10.8-16.91-2.19-6.03-3.04-12.43-2.48-18.89.54-6.32,2.42-12.34,5.41-17.79,2.95-5.36,7.01-10.2,12.02-14.29,9.82-8,22.33-12.34,35.41-12.35,13.09-.02,25.59,4.28,35.42,12.25,5,4.07,9.06,8.9,12.01,14.25,3.01,5.45,4.88,11.45,5.44,17.78.55,6.45-.3,12.84-2.49,18.88Z" style="fill:url(#linear-gradient-8); opacity:.7;"/><path d="m332.19,214.85c-.56-6.33-2.42-12.33-5.44-17.78-2.95-5.35-7-10.17-12.01-14.25-9.83-7.98-22.33-12.27-35.42-12.25-13.08.02-25.59,4.35-35.41,12.35-5.01,4.09-9.07,8.94-12.02,14.29-3,5.45-4.88,11.47-5.41,17.79-.56,6.46.29,12.86,2.48,18.89,2.24,6.14,5.87,11.9,10.8,16.91,10.1,10.28,24.25,16.06,39.58,16.04,15.31-.03,29.45-5.87,39.56-16.16h0c4.94-5.03,8.55-10.8,10.8-16.95,2.19-6.04,3.04-12.43,2.49-18.88Zm-26.99,23.22c-6.16,6.01-14.93,9.77-24.75,9.77s-18.6-3.77-24.76-9.77c-6.05-5.9-9.49-13.87-9.02-22.43.47-8.34,4.56-15.69,10.72-20.9,6.04-5.12,14.18-8.25,23.06-8.25s17,3.13,23.05,8.25c6.16,5.21,10.25,12.56,10.72,20.9.47,8.57-2.98,16.54-9.03,22.44Z" style="fill:url(#linear-gradient-9);"/><path d="m305.2,238.07c-6.16,6.01-14.93,9.77-24.75,9.77s-18.6-3.77-24.76-9.77c-6.05-5.9-9.49-13.87-9.02-22.43.47-8.34,4.56-15.69,10.72-20.9,6.04-5.12,14.18-8.25,23.06-8.25s17,3.13,23.05,8.25c6.16,5.21,10.25,12.56,10.72,20.9.47,8.57-2.98,16.54-9.03,22.44Z" style="fill:url(#linear-gradient-10); opacity:.3;"/></svg>