<?xml version="1.0" encoding="UTF-8"?>
<svg id="Layer_2" data-name="Layer 2" xmlns="http://www.w3.org/2000/svg" xmlns:xlink="http://www.w3.org/1999/xlink" viewBox="0 0 153.44 153.44">
  <defs>
    <style>
      .cls-1 {
        fill: blue;
        opacity: .5;
      }

      .cls-2 {
        opacity: 0;
      }

      .cls-3 {
        fill: url(#linear-gradient-2);
        fill-rule: evenodd;
      }

      .cls-4 {
        fill: url(#linear-gradient);
      }
    </style>
    <linearGradient id="linear-gradient" x1="76.72" y1="7.55" x2="76.72" y2="109.75" gradientUnits="userSpaceOnUse">
      <stop offset="0" stop-color="#b5f200"/>
      <stop offset="1" stop-color="#00aaca"/>
    </linearGradient>
    <linearGradient id="linear-gradient-2" y1="104.37" x2="76.72" y2="144.97" xlink:href="#linear-gradient"/>
  </defs>
  <g>
    <path class="cls-4" d="M107.46,8.4h-18.91l-.38,.65-11.45,19.83-11.45-19.83-.38-.65H25.5l.38,.65,32.36,56.05,18.49,32.02,18.49-32.02L127.57,9.06l.38-.65h-20.49Zm-30.74,53.24L46.36,9.06h18.15l11.64,20.16,.57,.98,.57-.98,11.64-20.16h18.15l-30.36,52.58Z"/>
    <path id="path897" class="cls-3" d="M47.11,118.79c0-.28,.16-.52,.47-.71,.32-.19,.65-.28,.99-.28,.48,0,.77,.18,.89,.54l5.05,16.87,5.02-16.87c.13-.36,.42-.54,.86-.54,.36,0,.7,.1,1.02,.31,.32,.21,.47,.45,.47,.71,0,.02,0,.05-.01,.09,0,.04-.01,.08-.01,.11l-5.82,18.89c-.21,.55-.72,.82-1.52,.82s-1.29-.27-1.46-.82l-5.88-18.89c-.04-.11-.06-.19-.06-.23h0Zm14.99,14.54v-7.39c0-.23,.12-.43,.36-.6,.24-.17,.52-.26,.85-.26,.31,0,.58,.09,.82,.27,.24,.18,.36,.37,.36,.58v7.39c0,.85,.32,1.62,.97,2.3s1.42,1.02,2.32,1.02,1.64-.34,2.29-1.01,.97-1.44,.97-2.32v-7.41c0-.21,.12-.4,.36-.57,.24-.17,.52-.26,.85-.26,.34,0,.63,.08,.85,.24,.22,.16,.33,.36,.33,.58v7.41c0,1.46-.56,2.73-1.68,3.82-1.12,1.09-2.44,1.63-3.97,1.63s-2.88-.54-4-1.63c-1.12-1.09-1.68-2.36-1.68-3.82h0Zm13.27-.06v-2.98c0-1.46,.56-2.72,1.68-3.78,1.12-1.06,2.46-1.59,4.03-1.59s2.78,.5,3.87,1.49c1.09,.99,1.63,2.24,1.63,3.74,0,.55-.07,.99-.2,1.32-.13,.33-.34,.57-.62,.71-.28,.14-.54,.23-.77,.27-.24,.04-.56,.06-.96,.06h-6.28v.85c0,1.04,.38,1.87,1.13,2.5,.75,.62,1.73,.94,2.94,.94,.63,0,1.18-.09,1.65-.28,.47-.19,.85-.37,1.13-.55,.29-.18,.52-.27,.69-.27,.27,0,.5,.12,.69,.36,.19,.24,.29,.48,.29,.72,0,.44-.43,.88-1.3,1.34-.87,.45-1.94,.68-3.23,.68-1.87,0-3.4-.51-4.59-1.52-1.19-1.01-1.78-2.34-1.78-3.99h0Zm2.38-2.36h5.3c.5,0,.83-.06,1-.18s.26-.36,.26-.72c0-.85-.32-1.6-.95-2.24-.63-.64-1.4-.97-2.32-.97s-1.67,.3-2.32,.89c-.65,.6-.97,1.33-.97,2.2v1.02Zm10.03,6.33c0-.42,.14-.77,.43-1.07,.29-.29,.64-.44,1.06-.44s.75,.15,1.03,.44c.29,.29,.43,.65,.43,1.07s-.14,.74-.43,1.04c-.29,.29-.63,.44-1.03,.44s-.77-.15-1.06-.44c-.29-.29-.43-.64-.43-1.04Zm2.12,6.79c0-.3,.1-.55,.29-.75,.19-.2,.42-.3,.69-.3,.75,0,1.23-.27,1.46-.82,.23-.55,.34-1.37,.34-2.47v-13.78c0-.25,.11-.45,.33-.6,.22-.15,.5-.23,.85-.23s.63,.08,.86,.23c.23,.15,.34,.35,.34,.6v13.78c0,1.65-.32,2.95-.97,3.92-.65,.97-1.63,1.45-2.95,1.45-.82,0-1.23-.34-1.23-1.02h0Zm2.47-24c0-.36,.14-.67,.43-.94,.29-.27,.64-.4,1.06-.4s.75,.13,1.03,.4c.29,.27,.43,.58,.43,.94s-.14,.68-.43,.95c-.29,.27-.63,.41-1.03,.41s-.75-.14-1.05-.41c-.3-.27-.44-.59-.44-.95h0Zm4.47,16.59c0-.25,.08-.49,.24-.72,.16-.24,.36-.36,.59-.36,.15,0,.37,.11,.66,.34,.29,.23,.7,.45,1.23,.67,.54,.22,1.17,.33,1.89,.33,.96,0,1.65-.17,2.08-.51,.43-.34,.65-.77,.65-1.28,0-.62-.24-1.12-.72-1.49-.48-.37-1.06-.65-1.75-.84-.69-.19-1.38-.4-2.06-.62-.69-.23-1.27-.61-1.75-1.14-.48-.53-.72-1.23-.72-2.1,0-1.08,.39-2.01,1.16-2.8,.77-.79,1.95-1.18,3.54-1.18,1.01,0,1.94,.16,2.78,.47,.84,.31,1.26,.67,1.26,1.07,0,.23-.09,.48-.27,.77-.18,.28-.41,.43-.67,.43-.08,0-.44-.14-1.1-.41-.66-.27-1.31-.41-1.96-.41-.88,0-1.53,.2-1.96,.61-.43,.41-.65,.87-.65,1.38s.24,.95,.72,1.25c.48,.3,1.07,.54,1.76,.71,.7,.17,1.39,.38,2.08,.62,.69,.25,1.27,.67,1.75,1.26,.48,.6,.72,1.37,.72,2.32,0,1.17-.42,2.1-1.26,2.78-.84,.68-2.02,1.02-3.53,1.02-1.3,0-2.41-.23-3.33-.7-.92-.46-1.38-.95-1.38-1.46h0Z"/>
  </g>
  <g class="cls-2">
    <path class="cls-1" d="M0,0V153.44H153.44V0H0ZM145.04,145.04H8.4V8.4H145.04V145.04Z"/>
  </g>
</svg>